<?xml version="1.0" encoding="utf-8"?>
<!-- Generator: Adobe Illustrator 17.0.0, SVG Export Plug-In . SVG Version: 6.00 Build 0)  -->
<!DOCTYPE svg PUBLIC "-//W3C//DTD SVG 1.1//EN" "http://www.w3.org/Graphics/SVG/1.1/DTD/svg11.dtd">
<svg width="100%" height="100%" viewBox="0 0 64 76" preserveAspectRatio="none"
	version="1.1" id="图层_1" xmlns="http://www.w3.org/2000/svg" xmlns:xlink="http://www.w3.org/1999/xlink"  enable-background="new 0 0 64 76" xml:space="preserve">
<g>
	<linearGradient id="SVGID_1_" gradientUnits="userSpaceOnUse" x1="32.2207" y1="6.1052" x2="32.2207" y2="69.5532">
		<stop  offset="0" style="stop-color:#F0F0F0"/>
		<stop  offset="1" style="stop-color:#FFFFFF"/>
	</linearGradient>
	<path fill="url(#SVGID_1_)" stroke="#CBCBCB" stroke-width="2" stroke-linecap="round" stroke-miterlimit="10" d="M59.221,69.202
		c0,1.071-0.895,1.94-2,1.94h-50c-1.103,0-2-0.869-2-1.94V6.841c0-1.071,0.897-1.94,2-1.94h50c1.105,0,2,0.869,2,1.94V69.202z"/>
	<linearGradient id="SVGID_2_" gradientUnits="userSpaceOnUse" x1="32.2212" y1="71.4644" x2="32.2212" y2="4.5781">
		<stop  offset="0" style="stop-color:#E6E6E6"/>
		<stop  offset="1" style="stop-color:#FFFFFF"/>
	</linearGradient>
	<path fill="none" stroke="url(#SVGID_2_)" stroke-width="1.5" stroke-linecap="round" stroke-miterlimit="10" d="M58.87,68.798
		c0,1.058-0.884,1.916-1.976,1.916H7.547c-1.09,0-1.975-0.858-1.975-1.916V7.244c0-1.058,0.885-1.916,1.975-1.916h49.348
		c1.092,0,1.976,0.858,1.976,1.916V68.798z"/>
</g>
</svg>
