<?xml version="1.0" encoding="utf-8"?>
<!-- Generator: Adobe Illustrator 17.0.0, SVG Export Plug-In . SVG Version: 6.00 Build 0)  -->
<!DOCTYPE svg PUBLIC "-//W3C//DTD SVG 1.1//EN" "http://www.w3.org/Graphics/SVG/1.1/DTD/svg11.dtd">
<svg width="100%" height="100%" viewBox="0 0 48 34" preserveAspectRatio="none"
	version="1.1" id="图层_1" xmlns="http://www.w3.org/2000/svg" xmlns:xlink="http://www.w3.org/1999/xlink"  enable-background="new 0 0 48 34" xml:space="preserve">
<g>
	<path fill-rule="evenodd" clip-rule="evenodd" fill="#666666" d="M34.798,12.582c0-0.646-0.407-0.957-0.407-0.957
		c-0.431-0.432-0.981-0.455-0.981-0.455c-0.694,0-1.125,0.455-1.125,0.455l-3.352,3.352l-3.352-3.352c0,0-0.407-0.455-1.125-0.455
		c0,0-0.55,0-0.982,0.455c0,0-0.407,0.311-0.407,0.957c0,0-0.096,0.6,0.407,1.126l3.352,3.376l-3.328,3.328
		c-0.455,0.383-0.455,1.125-0.455,1.125c0,0.574,0.455,1.053,0.455,1.053c0.408,0.407,0.982,0.359,0.982,0.359
		c0.742,0,1.077-0.406,1.077-0.406l3.352-3.352l3.353,3.352c0,0,0.334,0.406,1.076,0.406c0,0,0.574,0.048,0.982-0.359
		c0,0,0.455-0.479,0.455-1.053c0,0,0-0.742-0.455-1.125l-3.281-3.352l3.352-3.377C34.917,13.182,34.798,12.582,34.798,12.582
		L34.798,12.582z M47.893,27.354V6.885c-0.191-5.77-5.77-5.914-5.77-5.914H14.831c-0.742,0-1.15,0.408-1.15,0.408L0.514,15.982
		c-0.431,0.455-0.407,1.029-0.407,1.029c0,0.79,0.455,1.221,0.455,1.221l13.024,14.484c0.503,0.503,1.077,0.455,1.077,0.455h27.461
		C48.061,32.837,47.893,27.354,47.893,27.354L47.893,27.354z M41.263,29.557h-25.57L4.488,17.035L15.74,4.61l0.072-0.071h25.474
		c0,0,2.705,0.287,2.705,2.873v19.392C43.968,26.804,43.895,29.557,41.263,29.557L41.263,29.557z"/>
</g>
</svg>
