<?xml version="1.0" encoding="utf-8"?>
<!-- Generator: Adobe Illustrator 17.0.0, SVG Export Plug-In . SVG Version: 6.00 Build 0)  -->
<!DOCTYPE svg PUBLIC "-//W3C//DTD SVG 1.1//EN" "http://www.w3.org/Graphics/SVG/1.1/DTD/svg11.dtd">
<svg width="100%" height="100%" viewBox="0 0 40 28" preserveAspectRatio="none"
version="1.1" id="图层_1" xmlns="http://www.w3.org/2000/svg" xmlns:xlink="http://www.w3.org/1999/xlink" enable-background="new 0 0 40 28" xml:space="preserve">
<path fill="#FFFFFF" d="M35.722,1h-22L1.278,14l12.445,13h22c1.657,0,3-1.343,3-3V4C38.722,2.343,37.379,1,35.722,1z"/>
<g>
	<path fill="#ACB3BD" d="M30.547,19.849c-0.383,0.383-1.003,0.383-1.385,0L18.849,9.536c-0.383-0.383-0.383-1.003,0-1.385l0,0
		c0.383-0.383,1.003-0.383,1.385,0l10.313,10.313C30.93,18.847,30.93,19.467,30.547,19.849L30.547,19.849z"/>
	<path fill="#ACB3BD" d="M18.849,19.849c-0.383-0.383-0.383-1.003,0-1.385L29.162,8.151c0.383-0.383,1.003-0.383,1.385,0l0,0
		c0.383,0.383,0.383,1.003,0,1.385L20.234,19.849C19.851,20.232,19.231,20.232,18.849,19.849L18.849,19.849z"/>
</g>
</svg>
