<?xml version="1.0" encoding="utf-8"?>
<!-- Generator: Adobe Illustrator 17.0.0, SVG Export Plug-In . SVG Version: 6.00 Build 0)  -->
<!DOCTYPE svg PUBLIC "-//W3C//DTD SVG 1.1//EN" "http://www.w3.org/Graphics/SVG/1.1/DTD/svg11.dtd">
<svg width="100%" height="100%" viewBox="0 0 58 46" preserveAspectRatio="none"
	version="1.1" id="图层_1" xmlns="http://www.w3.org/2000/svg" xmlns:xlink="http://www.w3.org/1999/xlink"  enable-background="new 0 0 58 46" xml:space="preserve">
<g>
	<path fill-rule="evenodd" clip-rule="evenodd" fill="#666666" d="M11.623,25.14v2.896c0,0.363,0,0.363-0.362,0.363H8.364
		c-0.362,0-0.362,0-0.362-0.363V25.14c0-0.362,0-0.362,0.362-0.362h2.897C11.623,24.416,11.623,24.777,11.623,25.14L11.623,25.14
		L11.623,25.14 M15.605,16.812v2.896c0,0.362,0,0.362-0.362,0.362H8.364c-0.362,0-0.362,0-0.362-0.362v-2.896
		c0-0.361,0-0.361,0.362-0.361h6.879C15.243,16.451,15.605,16.451,15.605,16.812L15.605,16.812L15.605,16.812 M11.623,8.486v3.258
		c0,0.363,0,0.363-0.362,0.363H8.364c-0.362,0-0.362,0-0.362-0.363V8.486c-0.361-0.361,0-0.361,0.362-0.361h2.897
		C11.623,8.125,11.623,8.125,11.623,8.486L11.623,8.486L11.623,8.486 M42.395,25.14v2.896c0,0.363,0,0.363-0.361,0.363H15.967
		c-0.361,0-0.361,0-0.361-0.363V25.14c0-0.362,0-0.362,0.361-0.362h26.066C42.395,24.416,42.395,24.777,42.395,25.14L42.395,25.14
		L42.395,25.14 M23.207,16.812v2.896c0,0.362,0,0.362-0.361,0.362h-2.896c-0.361,0-0.361,0-0.361-0.362v-2.896
		c0-0.361,0-0.361,0.361-0.361h2.896C23.207,16.451,23.207,16.451,23.207,16.812L23.207,16.812L23.207,16.812 M19.225,8.486v3.258
		c0,0.363,0,0.363-0.361,0.363h-2.896c-0.361,0-0.361,0-0.361-0.363V8.486c0-0.361,0-0.361,0.361-0.361h2.896
		C19.225,8.125,19.225,8.125,19.225,8.486L19.225,8.486L19.225,8.486 M30.811,16.812v2.896c0,0.362,0,0.362-0.362,0.362h-2.896
		c-0.362,0-0.362,0-0.362-0.362v-2.896c0-0.361,0-0.361,0.362-0.361h2.896C30.811,16.451,30.811,16.451,30.811,16.812L30.811,16.812
		L30.811,16.812 M27.189,8.486v3.258c0,0.363,0,0.363-0.361,0.363H23.57c-0.363,0-0.363,0-0.363-0.363V8.486
		c0-0.361,0.363-0.361,0.363-0.361h2.896C26.828,8.125,27.189,8.125,27.189,8.486L27.189,8.486L27.189,8.486 M38.774,16.812v2.896
		c0,0.362,0,0.362-0.362,0.362h-3.258c-0.361,0-0.361,0-0.361-0.362v-2.896c0-0.361,0-0.361,0.361-0.361h2.896
		C38.412,16.451,38.774,16.451,38.774,16.812L38.774,16.812L38.774,16.812 M50.359,25.14v2.896c0,0.363,0,0.363-0.362,0.363h-2.896
		c-0.362,0-0.362,0-0.362-0.363V25.14c0-0.362,0-0.362,0.362-0.362h2.896C49.997,24.416,50.359,24.777,50.359,25.14L50.359,25.14
		L50.359,25.14 M34.793,8.486v3.258c0,0.363,0,0.363-0.363,0.363h-2.896c-0.362,0-0.362,0-0.362-0.363V8.486
		c-0.361-0.361,0-0.361,0.362-0.361h2.896C34.793,8.125,34.793,8.125,34.793,8.486L34.793,8.486L34.793,8.486 M42.395,8.486v3.258
		c0,0.363,0,0.363-0.361,0.363h-2.896c-0.362,0-0.362,0-0.362-0.363V8.486c0-0.361,0-0.361,0.362-0.361h2.896
		C42.395,8.125,42.395,8.125,42.395,8.486L42.395,8.486L42.395,8.486 M50.359,8.486v11.223c0,0.362,0,0.362-0.362,0.362h-6.878
		c-0.362,0-0.362,0-0.362-0.362v-2.896c0-0.361,0-0.361,0.362-0.361h3.258V8.486c0-0.361,0-0.361,0.362-0.361h2.896
		C49.997,8.125,50.359,8.125,50.359,8.486L50.359,8.486L50.359,8.486 M53.98,32.742v-28.6H4.02v28.6H53.98L53.98,32.742
		L53.98,32.742 M57.962,4.143v28.6c0,1.086-0.362,2.172-1.086,2.896c-0.724,0.725-1.81,1.086-2.534,1.086H4.02
		c-1.086,0-1.81-0.361-2.533-1.086c-1.086-0.725-1.448-1.811-1.448-2.896v-28.6c0-1.086,0.362-2.172,1.086-2.897
		C1.848,0.521,2.934,0.16,3.658,0.16H53.98c1.086,0,1.81,0.361,2.534,1.086C57.6,1.971,57.962,2.693,57.962,4.143L57.962,4.143
		L57.962,4.143 M23.207,38.896l5.431,6.517l5.431-6.517H23.207 M23.207,38.896"/>
</g>
</svg>
