<?xml version="1.0" encoding="utf-8"?>
<!-- Generator: Adobe Illustrator 17.0.0, SVG Export Plug-In . SVG Version: 6.00 Build 0)  -->
<!DOCTYPE svg PUBLIC "-//W3C//DTD SVG 1.1//EN" "http://www.w3.org/Graphics/SVG/1.1/DTD/svg11.dtd">
<svg width="100%" height="100%" viewBox="0 0 580 130" preserveAspectRatio="none"
	version="1.1" id="图层_1" xmlns="http://www.w3.org/2000/svg" xmlns:xlink="http://www.w3.org/1999/xlink"  enable-background="new 0 0 580 130" xml:space="preserve">
<g>
	<path fill-rule="evenodd" clip-rule="evenodd" fill="#E50012" d="M145.456,26.671c15.866,27.481-0.982,66.924-37.624,88.079
		s-79.224,16.025-95.09-11.457c-1.688-2.924-3.003-5.985-3.966-9.144c12.154,16.857,40.254,19.447,64.592,5.395
		c25.535-14.743,37.276-42.229,26.219-61.38c-4.153-7.193-10.933-12.189-19.134-14.842L92.599,2.286
		C115.322,1.108,135.572,9.552,145.456,26.671z"/>
	<path fill-rule="evenodd" clip-rule="evenodd" fill="#F9BE00" d="M79.473,25.021c-3.948-1.231-8.105-1.861-12.223-1.987
		c-11.491-0.352-23.067,3.088-32.97,8.805c-9.903,5.718-18.67,14.023-24.11,24.15c-4.485,8.35-6.765,18.215-4.309,27.553
		c0.65,2.474,1.622,4.844,2.901,7.06c1.207,2.09,2.67,4.012,4.357,5.734l-0.114-0.196c-1.094-1.894-1.924-3.92-2.481-6.035
		c-2.1-7.983-0.15-16.416,3.684-23.553c4.65-8.658,12.145-15.758,20.611-20.645c8.466-4.888,18.362-7.829,28.184-7.527
		c2.727,0.084,5.474,0.426,8.143,1.065L79.473,25.021z"/>
	<path fill-rule="evenodd" clip-rule="evenodd" fill="#E50012" d="M66.779,47.008l-6.781,18.638
		c-1.508,4.143-0.321,8.57,3.056,11.404l15.191,12.751L59.607,83.02c-4.143-1.507-8.57-0.321-11.404,3.056l-12.751,15.192
		l6.781-18.638c1.507-4.144,0.322-8.57-3.056-11.404l-7.596-6.375l-7.596-6.375l9.319,3.39l9.319,3.39
		c4.143,1.508,8.57,0.322,11.404-3.056L66.779,47.008z"/>
</g>
<path fill="#231815" d="M453.85,80.564v-8.682h21.898v8.682H453.85L453.85,80.564z M453.85,69.954V58.861h12.637l-6.27,11.093
	H453.85L453.85,69.954z M453.85,56.449v-8.682h16.785v8.682H453.85L453.85,56.449z M453.85,41.786v-8.682h13.409v8.682H453.85
	L453.85,41.786z M453.85,29.687V9.568h5.981l11.286,14.855h4.534l-2.315,7.042h-18.039L453.85,29.687L453.85,29.687z
	 M480.377,32.333h96.077v9.26h-19.871v28.553h16.302l-4.823,10.225h-30.675V41.593H518.77l-13.987,38.778h-18.521l-4.245-10.225
	h6.463l11.286-28.553h-19.389V32.333L480.377,32.333z M487.708,10.146h81.415v9.357h-81.415V10.146z M453.85,9.568v20.119
	l-8.681-10.666h-33.955v-3.103l4.341-6.35H453.85L453.85,9.568z M453.85,33.105v8.682h-16.688v5.98h16.688v8.682h-16.688v15.434
	h16.688v8.682h-42.637v-8.682h6.753V56.449h-6.753v-8.682h6.753v-5.98h-6.753v-8.682H453.85L453.85,33.105z M453.85,58.861h-6.174
	l-3.376,6.752h-3.087l1.447,4.341h11.189V58.861L453.85,58.861z M411.213,69.954h1.254l1.447-4.341h-2.701V69.954L411.213,69.954z
	 M411.213,12.801l2.122-3.233h-2.122V12.801z M411.213,9.568v3.233l-12.25,18.664h-17.171l-2.026-7.042h3.184l10.322-14.855H411.213
	L411.213,9.568z M411.213,15.917l-2.122,3.103h2.122V15.917L411.213,15.917z M411.213,33.105v8.682h-23.344v-8.682H411.213
	L411.213,33.105z M411.213,47.767v8.682h-26.72v-8.682H411.213L411.213,47.767z M411.213,65.613v4.341h-16.302l-6.271-11.093h18.81
	l3.473,6.752H411.213L411.213,65.613z M411.213,71.883v8.682h-31.736v-8.682H411.213L411.213,71.883z M304.428,76.046V65.83
	c2.112-0.89,4.138-1.83,6.077-2.821c2.894-1.479,5.337-3.023,7.331-4.63v-2.122c-2.251,1.608-4.775,3.151-7.572,4.63
	c-1.873,0.991-3.818,1.938-5.836,2.841V47.96h65.884l-2.604,8.103h-18.232l5.98,6.849l2.316-4.823h13.987l-4.727,10.708h-6.559
	l6.559,7.524h4.341l-3.569,4.63h-16.206l-15.337-18.907V80.95h-18.425V70.725C313.76,72.711,309.29,74.485,304.428,76.046
	L304.428,76.046z M304.428,43.33v-6.945h6.849v-3.183h-6.849v-5.498h6.849V24.52h-6.849v-5.402h6.849v-3.087h-6.849V9.278h24.116
	v6.752h-2.894v20.354h2.894v6.945h-2.894v3.858h-14.373V43.33H304.428L304.428,43.33z M344.846,16.995
	c1.479,3.408,3.665,6.431,6.559,9.068c3.344-3.087,5.724-6.431,7.138-10.033h-28.843V9.471h43.602v6.559
	c-1.866,6.624-5.563,12.283-11.094,16.977c1.544,0.836,3.184,1.608,4.92,2.315c1.736,0.707,3.569,1.415,5.498,2.122v9.936
	c-8.232-1.929-15.306-4.373-21.222-7.331c-2.959,1.479-6.19,2.829-9.695,4.052c-3.505,1.222-7.283,2.315-11.334,3.28v-9.936
	c3.73-1.351,7.202-2.798,10.418-4.341c-5.145-4.373-8.747-9.743-10.805-16.109H344.846z M208.592,8.989h1.784l-1.784,2.103V8.989
	L208.592,8.989z M208.592,12.172h58.891v6.945l-3.666,4.63h5.98v18.81h-19.196V30.404H235.36v5.595h15.241l-3.473,6.559h-15.144
	L237,46.61h15.145l5.016,8.392l2.122-7.524h12.637l-3.954,15.145h-6.174l5.595,9.164h5.016l-2.797,6.655h-16.399l-15.048-26.527
	v29.132h-22.669l-3.473-5.016h7.717v-2.604c-3.578,0.895-7.292,1.712-11.141,2.454v-9.174c3.966-0.788,7.68-1.7,11.141-2.734v-1.737
	c-3.578,0.895-7.292,1.713-11.141,2.454v-9.174c3.966-0.788,7.68-1.7,11.141-2.734v-1.64c-3.578,0.895-7.292,1.713-11.141,2.454
	V43.192c0.992-0.203,1.973-0.414,2.942-0.633h-2.942v-6.559h7.572v-5.595h-7.572v-6.656h34.196l4.148-4.63h-38.344V12.172
	L208.592,12.172z M304.428,9.278v6.752h-6.849v3.087h6.849v5.402h-6.849v3.183h6.849v5.498h-6.849v3.183h6.849v6.945h-24.116v-6.945
	h2.894V16.031h-2.894V9.278H304.428L304.428,9.278z M304.428,47.96v15.767c-0.995,0.446-2.008,0.882-3.039,1.307
	c-3.119,1.286-6.383,2.428-9.791,3.424c-3.408,0.997-6.88,1.816-10.418,2.459v-8.971c3.151-0.836,5.948-1.72,8.392-2.652
	c2.443-0.932,4.694-2.01,6.752-3.232h-14.952V47.96H304.428L304.428,47.96z M304.428,65.83c-1.04,0.438-2.101,0.864-3.184,1.278
	c-3.28,1.254-6.655,2.363-10.128,3.328c-3.473,0.964-6.785,1.769-9.936,2.411v8.296c7.009-0.9,13.618-2.251,19.823-4.052
	c1.162-0.337,2.304-0.686,3.424-1.046V65.83z M182.209,22.59l-2.508-6.463h3.955l6.077-7.138h18.859v2.103l-0.917,1.081h0.917v6.945
	h-6.704l-2.894,3.473H182.209L182.209,22.59z M208.592,75.881c-2.515,0.485-5.087,0.937-7.718,1.356
	c-6.655,1.061-13.745,1.721-21.27,1.977V70.05c7.331-0.321,14.453-0.997,21.367-2.025c2.636-0.393,5.176-0.832,7.621-1.317V75.881
	L208.592,75.881z M208.592,64.691v-9.174c-2.444,0.486-4.985,0.925-7.621,1.317c-6.914,1.029-14.036,1.704-21.367,2.026v9.164
	c7.524-0.257,14.614-0.916,21.27-1.977C203.505,65.627,206.077,65.176,208.592,64.691L208.592,64.691z M208.592,53.598
	c-2.515,0.485-5.087,0.937-7.718,1.356c-6.655,1.06-13.745,1.72-21.27,1.977V46.61c5.659-0.257,11.189-0.723,16.592-1.399
	c4.317-0.539,8.448-1.213,12.395-2.019V53.598L208.592,53.598z M208.592,42.558h-26.865v-18.81h26.865v6.656h-7.572v5.595h7.572
	V42.558z"/>
<path fill="#231815" d="M529.22,113.995v-2.832h4.356l-4.356-8.705v-8.08c0.14-0.111,0.291-0.24,0.451-0.387
	c0.331-0.304,0.571-0.453,0.726-0.453c0.218,0,0.408,0.137,0.578,0.417c0.014,0.023,0.021,0.035,0.021,0.035l11.892,22.83
	c0.169,0.298,0.324,0.531,0.479,0.698c0.148,0.161,0.324,0.28,0.515,0.364l0.641,0.262c0.014,0,0.05,0.012,0.106,0.036
	c0.493,0.209,0.74,0.483,0.74,0.823v1.503h-11.032v-1.366c0-0.221,0.056-0.405,0.155-0.56c0.105-0.149,0.268-0.274,0.486-0.364
	l0.973-0.435c0.113-0.035,0.204-0.113,0.289-0.227c0.085-0.119,0.127-0.226,0.127-0.334c0-0.137-0.021-0.292-0.064-0.453
	c-0.042-0.161-0.106-0.328-0.19-0.488l-1.177-2.284H529.22L529.22,113.995z M548.928,120.506v-1.294c0-0.28,0.071-0.507,0.219-0.68
	c0.141-0.179,0.353-0.304,0.628-0.388l0.642-0.209c0.345-0.119,0.577-0.262,0.705-0.429c0.12-0.167,0.183-0.459,0.183-0.865V97.868
	c0-0.442-0.056-0.745-0.162-0.907c-0.113-0.167-0.31-0.292-0.599-0.387l-0.557-0.209c-0.268-0.107-0.451-0.239-0.564-0.399
	c-0.106-0.167-0.162-0.393-0.162-0.68v-1.294h8.628l12.519,16.414c-0.042-0.28-0.078-0.591-0.099-0.942
	c-0.022-0.352-0.028-0.864-0.028-1.556v-10.04c0-0.394-0.063-0.68-0.183-0.859c-0.127-0.173-0.374-0.316-0.747-0.435l-0.578-0.209
	c-0.303-0.095-0.529-0.233-0.683-0.411c-0.148-0.179-0.225-0.406-0.225-0.668v-1.294h8.592v1.294c0,0.275-0.07,0.501-0.204,0.68
	c-0.141,0.173-0.346,0.298-0.62,0.382l-0.621,0.227c-0.359,0.119-0.606,0.262-0.733,0.435c-0.134,0.178-0.198,0.465-0.198,0.859
	v22.639h-2.911l-16.226-21.297c0.077,0.757,0.134,1.324,0.161,1.687c0.029,0.37,0.043,0.656,0.043,0.864v14.882
	c0,0.406,0.064,0.698,0.183,0.865c0.127,0.167,0.36,0.31,0.705,0.429l0.642,0.209c0.289,0.096,0.5,0.227,0.642,0.394
	c0.134,0.167,0.204,0.394,0.204,0.674v1.294H548.928z M529.22,94.379v8.08l-0.042-0.084l-4.314,8.788h4.356v2.832h-5.787
	l-1.156,2.265c-0.12,0.233-0.198,0.406-0.233,0.513c-0.036,0.113-0.057,0.22-0.057,0.328c0,0.161,0.057,0.316,0.155,0.459
	c0.106,0.143,0.24,0.238,0.402,0.286l0.663,0.298c0.014,0,0.049,0.012,0.106,0.036c0.493,0.209,0.74,0.471,0.74,0.787v1.538h-8.67
	v-1.366c0-0.233,0.056-0.423,0.162-0.578c0.113-0.149,0.275-0.268,0.479-0.346l0.966-0.369c0.359-0.113,0.733-0.406,1.114-0.87
	c0.388-0.465,0.782-1.097,1.184-1.902l8.071-16.104l-1.177-2.128c-0.028-0.036-0.05-0.078-0.063-0.132
	c-0.014-0.053-0.022-0.131-0.022-0.238c0-0.233,0.296-0.483,0.889-0.752c0.402-0.173,0.711-0.328,0.93-0.471l0.888-0.578
	C528.932,94.595,529.071,94.497,529.22,94.379L529.22,94.379z M241.358,113.995v-2.832h4.356l-4.356-8.705v-8.08
	c0.14-0.111,0.291-0.24,0.451-0.387c0.331-0.304,0.571-0.453,0.726-0.453c0.219,0,0.408,0.137,0.578,0.417
	c0.014,0.023,0.021,0.035,0.021,0.035l11.892,22.83c0.169,0.298,0.324,0.531,0.479,0.698c0.148,0.161,0.324,0.28,0.515,0.364
	l0.641,0.262c0.014,0,0.049,0.012,0.106,0.036c0.493,0.209,0.74,0.483,0.74,0.823v1.503h-11.032v-1.366
	c0-0.221,0.056-0.405,0.155-0.56c0.106-0.149,0.268-0.274,0.486-0.364l0.973-0.435c0.113-0.035,0.204-0.113,0.289-0.227
	c0.084-0.119,0.127-0.226,0.127-0.334c0-0.137-0.021-0.292-0.064-0.453c-0.043-0.161-0.105-0.328-0.19-0.488l-1.177-2.284H241.358
	L241.358,113.995z M261.066,120.506v-1.294c0-0.28,0.07-0.507,0.218-0.68c0.141-0.179,0.353-0.304,0.628-0.388l0.641-0.209
	c0.345-0.119,0.578-0.262,0.705-0.429c0.12-0.167,0.183-0.459,0.183-0.865V97.868c0-0.442-0.056-0.745-0.162-0.907
	c-0.113-0.167-0.31-0.292-0.599-0.387l-0.557-0.209c-0.268-0.107-0.451-0.239-0.564-0.399c-0.106-0.167-0.162-0.393-0.162-0.68
	v-1.294h8.628l12.519,16.414c-0.043-0.28-0.078-0.591-0.099-0.942c-0.022-0.352-0.029-0.864-0.029-1.556v-10.04
	c0-0.394-0.064-0.68-0.183-0.859c-0.127-0.173-0.374-0.316-0.747-0.435l-0.578-0.209c-0.303-0.095-0.529-0.233-0.684-0.411
	c-0.148-0.179-0.225-0.406-0.225-0.668v-1.294h8.592v1.294c0,0.275-0.071,0.501-0.204,0.68c-0.141,0.173-0.346,0.298-0.62,0.382
	l-0.62,0.227c-0.359,0.119-0.606,0.262-0.733,0.435c-0.134,0.178-0.197,0.465-0.197,0.859v22.639h-2.911l-16.226-21.297
	c0.077,0.757,0.134,1.324,0.162,1.687c0.028,0.37,0.043,0.656,0.043,0.864v14.882c0,0.406,0.064,0.698,0.183,0.865
	c0.127,0.167,0.36,0.31,0.705,0.429l0.642,0.209c0.288,0.096,0.5,0.227,0.642,0.394c0.134,0.167,0.204,0.394,0.204,0.674v1.294
	H261.066L261.066,120.506z M323.716,118.497c-2.756,0.811-5.244,1.425-7.465,1.83c-2.22,0.412-4.208,0.614-5.956,0.614
	c-2.34,0-4.377-0.244-6.119-0.733c-1.74-0.489-3.313-1.246-4.701-2.272c-1.805-1.347-3.165-2.945-4.096-4.782
	c-0.931-1.842-1.395-3.875-1.395-6.099c0-1.699,0.359-3.369,1.071-5.014c0.719-1.639,1.734-3.13,3.059-4.465
	c1.388-1.39,2.94-2.415,4.645-3.077c1.706-0.662,3.637-0.996,5.801-0.996c1.791,0,3.44,0.299,4.955,0.889
	c1.516,0.596,2.291,0.894,2.333,0.894c0.106,0,0.197-0.006,0.261-0.012c0.056-0.006,0.113-0.012,0.148-0.024l0.599-0.209
	c0.317-0.108,0.564-0.173,0.726-0.209c0.169-0.036,0.303-0.054,0.416-0.054h0.803v6.988h-1.219c-0.635,0-1.171-0.328-1.615-0.978
	c-0.049-0.095-0.091-0.155-0.12-0.191c-0.98-1.479-2.037-2.576-3.179-3.286c-1.142-0.709-2.425-1.067-3.842-1.067
	c-2.559,0-4.581,0.96-6.069,2.88c-1.487,1.926-2.228,4.543-2.228,7.858c0,3.428,0.86,6.147,2.573,8.168
	c1.713,2.021,3.997,3.029,6.858,3.029c1.692,0,2.989-0.358,3.891-1.067c0.903-0.71,1.354-1.741,1.354-3.089v-0.751
	c0-0.376-0.085-0.668-0.247-0.888c-0.169-0.226-0.451-0.418-0.846-0.578l-0.726-0.28c-0.317-0.137-0.542-0.304-0.684-0.489
	c-0.134-0.185-0.204-0.418-0.204-0.698v-1.312h8.719c-0.113,0.638-0.198,1.258-0.26,1.854c-0.064,0.59-0.092,1.151-0.092,1.675
	c0,1.175,0.113,2.009,0.338,2.498c0.232,0.488,0.628,0.835,1.191,1.043l0.677,0.244c0.247,0.107,0.416,0.215,0.5,0.328
	c0.077,0.108,0.127,0.292,0.141,0.549V118.497L323.716,118.497z M330.891,117.674c0.303,0.161,0.592,0.28,0.867,0.358
	c0.274,0.078,0.571,0.113,0.867,0.113c1.149,0,1.995-0.364,2.551-1.085c0.557-0.721,0.839-1.812,0.839-3.279V97.868
	c0-0.394-0.064-0.68-0.197-0.859c-0.127-0.173-0.374-0.316-0.733-0.435l-0.578-0.209c-0.303-0.095-0.521-0.226-0.662-0.399
	c-0.134-0.179-0.204-0.405-0.204-0.68v-1.294h10.574v1.294c0,0.287-0.057,0.513-0.162,0.68c-0.113,0.161-0.296,0.292-0.557,0.399
	l-0.5,0.209c-0.289,0.107-0.486,0.244-0.599,0.411c-0.105,0.167-0.161,0.465-0.161,0.883v12.729c0,2.003-0.121,3.476-0.36,4.412
	c-0.24,0.942-0.648,1.795-1.213,2.564c-0.797,1.091-1.847,1.932-3.144,2.523c-1.304,0.59-2.777,0.882-4.413,0.882
	c-2.199,0-3.975-0.441-5.315-1.329c-1.347-0.883-2.016-2.033-2.016-3.44c0-0.828,0.289-1.502,0.867-2.021
	c0.578-0.519,1.311-0.775,2.185-0.775c0.909,0,1.642,0.239,2.2,0.709c0.556,0.471,0.838,1.085,0.838,1.842
	c0,0.334-0.077,0.644-0.24,0.924C331.468,117.168,331.222,117.43,330.891,117.674L330.891,117.674z M349.675,93.992h10.616v1.294
	c0,0.292-0.063,0.525-0.183,0.692c-0.127,0.167-0.31,0.292-0.557,0.376l-0.62,0.227c-0.331,0.119-0.557,0.263-0.669,0.43
	c-0.12,0.167-0.176,0.453-0.176,0.864v11.472c0,1.592,0.078,2.76,0.24,3.506c0.155,0.745,0.423,1.401,0.789,1.956
	c0.557,0.876,1.375,1.562,2.46,2.057c1.085,0.495,2.305,0.74,3.658,0.74c1.206,0,2.333-0.197,3.362-0.596
	c1.029-0.394,1.875-0.948,2.517-1.658c0.563-0.602,0.972-1.383,1.212-2.331c0.24-0.948,0.36-2.319,0.36-4.108V97.873
	c0-0.387-0.056-0.667-0.176-0.847c-0.12-0.185-0.338-0.328-0.67-0.447l-0.543-0.209c-0.275-0.095-0.473-0.227-0.599-0.394
	c-0.121-0.167-0.184-0.399-0.184-0.692v-1.294h7.874v1.294c0,0.292-0.056,0.525-0.177,0.692c-0.12,0.167-0.309,0.299-0.585,0.394
	l-0.543,0.209c-0.317,0.119-0.528,0.256-0.641,0.411c-0.106,0.155-0.162,0.454-0.162,0.883v11.573c0,2.158-0.225,3.852-0.684,5.085
	c-0.451,1.234-1.212,2.337-2.269,3.315c-1.072,1.002-2.383,1.771-3.934,2.302c-1.551,0.53-3.257,0.793-5.131,0.793
	c-4.103,0-7.197-1.008-9.277-3.023c-2.079-2.015-3.116-5.02-3.116-9.009V97.873c0-0.411-0.056-0.697-0.176-0.864
	c-0.12-0.167-0.338-0.31-0.669-0.43l-0.543-0.209c-0.275-0.095-0.479-0.227-0.606-0.405c-0.135-0.173-0.198-0.4-0.198-0.68V93.992
	L349.675,93.992z M386.921,117.674c0.303,0.161,0.592,0.28,0.867,0.358c0.275,0.078,0.571,0.113,0.867,0.113
	c1.149,0,1.995-0.364,2.551-1.085c0.557-0.721,0.839-1.812,0.839-3.279V97.868c0-0.394-0.064-0.68-0.198-0.859
	c-0.127-0.173-0.374-0.316-0.733-0.435l-0.578-0.209c-0.303-0.095-0.521-0.226-0.663-0.399c-0.134-0.179-0.204-0.405-0.204-0.68
	v-1.294h10.573v1.294c0,0.287-0.057,0.513-0.162,0.68c-0.113,0.161-0.296,0.292-0.557,0.399l-0.5,0.209
	c-0.289,0.107-0.486,0.244-0.599,0.411c-0.105,0.167-0.162,0.465-0.162,0.883v12.729c0,2.003-0.12,3.476-0.36,4.412
	c-0.24,0.942-0.649,1.795-1.212,2.564c-0.797,1.091-1.847,1.932-3.144,2.523c-1.304,0.59-2.777,0.882-4.412,0.882
	c-2.199,0-3.976-0.441-5.315-1.329c-1.346-0.883-2.016-2.033-2.016-3.44c0-0.828,0.289-1.502,0.867-2.021
	c0.578-0.519,1.311-0.775,2.185-0.775c0.909,0,1.642,0.239,2.2,0.709c0.556,0.471,0.839,1.085,0.839,1.842
	c0,0.334-0.077,0.644-0.239,0.924C387.499,117.168,387.252,117.43,386.921,117.674L386.921,117.674z M405.959,120.506v-1.294
	c0-0.28,0.07-0.507,0.219-0.68c0.141-0.179,0.352-0.304,0.627-0.388l0.599-0.209c0.359-0.131,0.606-0.28,0.733-0.447
	c0.134-0.167,0.198-0.454,0.198-0.847V97.868c0-0.394-0.064-0.68-0.198-0.859c-0.127-0.173-0.374-0.316-0.733-0.435l-0.578-0.209
	c-0.303-0.095-0.521-0.226-0.663-0.399c-0.134-0.179-0.204-0.405-0.204-0.68v-1.294h11.095v1.294c0,0.263-0.078,0.489-0.226,0.668
	c-0.155,0.179-0.373,0.316-0.662,0.411l-0.599,0.209c-0.36,0.119-0.607,0.262-0.734,0.435c-0.134,0.178-0.197,0.465-0.197,0.859
	v18.775c0,0.394,0.063,0.68,0.197,0.847c0.127,0.166,0.374,0.316,0.734,0.447l0.599,0.209c0.289,0.096,0.507,0.227,0.662,0.4
	c0.148,0.178,0.226,0.399,0.226,0.667v1.294H405.959L405.959,120.506z M422.883,120.506v-1.294c0-0.28,0.07-0.507,0.218-0.68
	c0.141-0.179,0.353-0.304,0.628-0.388l0.642-0.209c0.345-0.119,0.577-0.262,0.705-0.429c0.12-0.167,0.183-0.459,0.183-0.865V97.868
	c0-0.442-0.056-0.745-0.162-0.907c-0.113-0.167-0.31-0.292-0.599-0.387l-0.556-0.209c-0.268-0.107-0.451-0.239-0.564-0.399
	c-0.106-0.167-0.162-0.393-0.162-0.68v-1.294h8.628l12.519,16.414c-0.043-0.28-0.078-0.591-0.099-0.942
	c-0.022-0.352-0.028-0.864-0.028-1.556v-10.04c0-0.394-0.064-0.68-0.183-0.859c-0.127-0.173-0.374-0.316-0.747-0.435l-0.578-0.209
	c-0.303-0.095-0.529-0.233-0.684-0.411c-0.148-0.179-0.225-0.406-0.225-0.668v-1.294h8.592v1.294c0,0.275-0.07,0.501-0.204,0.68
	c-0.141,0.173-0.345,0.298-0.62,0.382l-0.621,0.227c-0.359,0.119-0.606,0.262-0.733,0.435c-0.134,0.178-0.198,0.465-0.198,0.859
	v22.639h-2.911l-16.226-21.297c0.077,0.757,0.134,1.324,0.162,1.687c0.028,0.37,0.043,0.656,0.043,0.864v14.882
	c0,0.406,0.064,0.698,0.183,0.865c0.127,0.167,0.36,0.31,0.705,0.429l0.642,0.209c0.289,0.096,0.501,0.227,0.642,0.394
	c0.134,0.167,0.204,0.394,0.204,0.674v1.294H422.883L422.883,120.506z M462.179,120.506v-1.294c0-0.268,0.071-0.489,0.219-0.667
	c0.141-0.174,0.366-0.304,0.67-0.4l0.6-0.209c0.359-0.131,0.606-0.28,0.733-0.447c0.134-0.167,0.197-0.454,0.197-0.847v-8.12
	l-7.62-10.482c-0.211-0.286-0.444-0.543-0.712-0.763c-0.275-0.227-0.543-0.4-0.818-0.525l-0.705-0.316
	c-0.395-0.173-0.67-0.346-0.811-0.507c-0.148-0.161-0.218-0.364-0.218-0.608v-1.33h12.019v1.258c0,0.185-0.071,0.375-0.218,0.566
	c-0.141,0.191-0.318,0.334-0.522,0.429l-0.599,0.263c-0.169,0.066-0.303,0.179-0.402,0.34c-0.105,0.155-0.155,0.328-0.155,0.513
	c0,0.107,0.021,0.22,0.07,0.34c0.049,0.125,0.12,0.251,0.219,0.376l4.955,7.077l5.083-7.197c0.014-0.012,0.042-0.047,0.077-0.108
	c0.197-0.256,0.289-0.465,0.289-0.626c0-0.108-0.028-0.209-0.092-0.304c-0.064-0.101-0.141-0.167-0.232-0.202l-0.726-0.28
	c-0.317-0.125-0.557-0.28-0.726-0.453c-0.163-0.173-0.247-0.376-0.247-0.597v-1.395h9.086v1.36c0,0.226-0.063,0.417-0.197,0.59
	c-0.127,0.167-0.317,0.298-0.564,0.387l-0.888,0.316c-0.247,0.083-0.55,0.274-0.91,0.578c-0.359,0.304-0.676,0.644-0.951,1.031
	l-7.268,10.023v8.365c0,0.406,0.057,0.698,0.177,0.865c0.12,0.167,0.352,0.31,0.712,0.429l0.641,0.209
	c0.275,0.084,0.486,0.209,0.627,0.388c0.148,0.173,0.219,0.399,0.219,0.68v1.294H462.179L462.179,120.506z M484.883,93.992h10.616
	v1.294c0,0.292-0.064,0.525-0.183,0.692c-0.127,0.167-0.31,0.292-0.557,0.376l-0.62,0.227c-0.331,0.119-0.557,0.263-0.67,0.43
	c-0.12,0.167-0.177,0.453-0.177,0.864v11.472c0,1.592,0.078,2.76,0.24,3.506c0.155,0.745,0.423,1.401,0.789,1.956
	c0.557,0.876,1.375,1.562,2.46,2.057c1.085,0.495,2.305,0.74,3.658,0.74c1.206,0,2.333-0.197,3.362-0.596
	c1.029-0.394,1.875-0.948,2.517-1.658c0.563-0.602,0.972-1.383,1.212-2.331c0.24-0.948,0.36-2.319,0.36-4.108V97.873
	c0-0.387-0.056-0.667-0.177-0.847c-0.12-0.185-0.338-0.328-0.669-0.447l-0.543-0.209c-0.275-0.095-0.473-0.227-0.599-0.394
	c-0.121-0.167-0.184-0.399-0.184-0.692v-1.294h7.874v1.294c0,0.292-0.056,0.525-0.177,0.692c-0.12,0.167-0.31,0.299-0.585,0.394
	l-0.543,0.209c-0.317,0.119-0.528,0.256-0.641,0.411c-0.106,0.155-0.163,0.454-0.163,0.883v11.573c0,2.158-0.225,3.852-0.684,5.085
	c-0.451,1.234-1.212,2.337-2.269,3.315c-1.072,1.002-2.383,1.771-3.934,2.302c-1.551,0.53-3.257,0.793-5.131,0.793
	c-4.103,0-7.197-1.008-9.277-3.023c-2.079-2.015-3.116-5.02-3.116-9.009V97.873c0-0.411-0.056-0.697-0.176-0.864
	c-0.12-0.167-0.338-0.31-0.67-0.43l-0.543-0.209c-0.275-0.095-0.479-0.227-0.606-0.405c-0.135-0.173-0.197-0.4-0.197-0.68V93.992z
	 M179.604,120.506v-1.366c0-0.173,0.07-0.346,0.219-0.524c0.141-0.174,0.325-0.31,0.543-0.4l1.177-0.507
	c0.359-0.131,0.726-0.322,1.092-0.584c0.374-0.263,0.67-0.536,0.889-0.817l7.577-8.973l-7.225-9.504
	c-0.219-0.292-0.465-0.531-0.74-0.716c-0.275-0.184-0.606-0.345-0.993-0.47l-0.93-0.28c-0.304-0.095-0.515-0.203-0.628-0.334
	c-0.12-0.125-0.177-0.304-0.177-0.536v-1.503h11.751v1.115c0,0.233-0.043,0.418-0.127,0.549c-0.077,0.137-0.232,0.263-0.451,0.376
	l-0.5,0.316c-0.12,0.06-0.219,0.149-0.289,0.28c-0.064,0.125-0.099,0.268-0.099,0.417c0,0.095,0.014,0.185,0.042,0.275
	c0.028,0.083,0.063,0.161,0.12,0.214l4.089,5.628l4.356-5.193c0.141-0.149,0.247-0.298,0.325-0.453
	c0.077-0.149,0.112-0.287,0.112-0.4c0-0.131-0.028-0.25-0.085-0.357c-0.056-0.113-0.12-0.185-0.204-0.221l-0.578-0.292
	c-0.014-0.011-0.07-0.035-0.169-0.071c-0.437-0.173-0.655-0.435-0.655-0.787v-1.395h8.67v1.36c0,0.232-0.064,0.429-0.183,0.596
	c-0.127,0.161-0.31,0.292-0.557,0.382l-0.867,0.316c-0.268,0.101-0.55,0.286-0.853,0.542c-0.303,0.257-0.634,0.608-1.008,1.062
	l-6.26,7.405l8.367,10.852c0.219,0.286,0.459,0.537,0.719,0.751c0.261,0.209,0.529,0.37,0.804,0.489l0.895,0.399
	c0.028,0.012,0.077,0.036,0.162,0.072c0.458,0.197,0.684,0.459,0.684,0.787v1.503h-11.793v-1.258c0-0.245,0.042-0.441,0.12-0.579
	c0.084-0.137,0.24-0.268,0.458-0.387l0.557-0.274c0.134-0.071,0.246-0.179,0.331-0.316c0.085-0.143,0.12-0.286,0.12-0.435
	c0-0.119-0.028-0.244-0.092-0.388c-0.064-0.137-0.155-0.286-0.275-0.435l-4.956-6.517l-5.287,6.409
	c-0.014,0.012-0.035,0.036-0.064,0.072c-0.233,0.304-0.352,0.536-0.352,0.698c0,0.155,0.035,0.298,0.091,0.429
	c0.063,0.131,0.127,0.221,0.197,0.251l0.557,0.298c0.028,0.012,0.085,0.036,0.169,0.071c0.451,0.185,0.677,0.447,0.677,0.787v1.574
	H179.604L179.604,120.506z M241.358,94.379v8.08l-0.042-0.084l-4.314,8.788h4.356v2.832h-5.787l-1.156,2.265
	c-0.12,0.233-0.198,0.406-0.233,0.513c-0.036,0.113-0.057,0.22-0.057,0.328c0,0.161,0.057,0.316,0.155,0.459
	c0.105,0.143,0.24,0.238,0.402,0.286l0.663,0.298c0.014,0,0.049,0.012,0.105,0.036c0.494,0.209,0.74,0.471,0.74,0.787v1.538h-8.67
	v-1.366c0-0.233,0.056-0.423,0.162-0.578c0.113-0.149,0.274-0.268,0.479-0.346l0.966-0.369c0.359-0.113,0.733-0.406,1.114-0.87
	c0.387-0.465,0.782-1.097,1.184-1.902l8.071-16.104l-1.178-2.128c-0.028-0.036-0.049-0.078-0.063-0.132
	c-0.014-0.053-0.022-0.131-0.022-0.238c0-0.233,0.296-0.483,0.889-0.752c0.402-0.173,0.711-0.328,0.93-0.471l0.888-0.578
	C241.069,94.595,241.208,94.497,241.358,94.379L241.358,94.379z M212.762,120.506v-1.294c0-0.28,0.07-0.507,0.218-0.68
	c0.141-0.179,0.352-0.304,0.628-0.388l0.599-0.209c0.359-0.131,0.606-0.28,0.733-0.447c0.134-0.167,0.197-0.454,0.197-0.847V97.868
	c0-0.394-0.063-0.68-0.197-0.859c-0.127-0.173-0.374-0.316-0.733-0.435l-0.578-0.209c-0.303-0.095-0.521-0.226-0.663-0.399
	c-0.134-0.179-0.204-0.405-0.204-0.68v-1.294h11.095v1.294c0,0.263-0.078,0.489-0.226,0.668c-0.155,0.179-0.373,0.316-0.662,0.411
	l-0.599,0.209c-0.36,0.119-0.607,0.262-0.734,0.435c-0.134,0.178-0.197,0.465-0.197,0.859v18.775c0,0.394,0.063,0.68,0.197,0.847
	c0.127,0.166,0.374,0.316,0.734,0.447l0.599,0.209c0.289,0.096,0.507,0.227,0.662,0.4c0.148,0.178,0.226,0.399,0.226,0.667v1.294
	H212.762z"/>
</svg>
