<?xml version="1.0" encoding="utf-8"?>
<!-- Generator: Adobe Illustrator 17.0.0, SVG Export Plug-In . SVG Version: 6.00 Build 0)  -->
<!DOCTYPE svg PUBLIC "-//W3C//DTD SVG 1.1//EN" "http://www.w3.org/Graphics/SVG/1.1/DTD/svg11.dtd">
<svg width="100%" height="100%" viewBox="0 0 202 80" preserveAspectRatio="none"
	version="1.1" id="图层_1" xmlns="http://www.w3.org/2000/svg" xmlns:xlink="http://www.w3.org/1999/xlink"  enable-background="new 0 0 202 80" xml:space="preserve">
<g>
	<linearGradient id="SVGID_1_" gradientUnits="userSpaceOnUse" x1="100.9241" y1="7.5879" x2="100.9241" y2="72.952">
		<stop  offset="0" style="stop-color:#F0F0F0"/>
		<stop  offset="1" style="stop-color:#FFFFFF"/>
	</linearGradient>
	<path fill="url(#SVGID_1_)" stroke="#CBCBCB" stroke-width="2" stroke-linecap="round" stroke-miterlimit="10" d="M193.997,72.648
		c0,1.071-0.895,1.94-2,1.94H9.851c-1.104,0-2-0.869-2-1.94V8.288c0-1.072,0.896-1.941,2-1.941h182.146c1.105,0,2,0.869,2,1.941
		V72.648z"/>
	<linearGradient id="SVGID_2_" gradientUnits="userSpaceOnUse" x1="100.9243" y1="6.7744" x2="100.9243" y2="74.1611">
		<stop  offset="0" style="stop-color:#F0F0F0"/>
		<stop  offset="1" style="stop-color:#FFFFFF"/>
	</linearGradient>
	<linearGradient id="SVGID_3_" gradientUnits="userSpaceOnUse" x1="100.9243" y1="74.9111" x2="100.9243" y2="6.0244">
		<stop  offset="0" style="stop-color:#E6E6E6"/>
		<stop  offset="1" style="stop-color:#FFFFFF"/>
	</linearGradient>
	<path fill="url(#SVGID_2_)" stroke="url(#SVGID_3_)" stroke-width="1.5" stroke-linecap="round" stroke-miterlimit="10" d="
		M193.646,72.245c0,1.058-0.884,1.916-1.976,1.916H10.177c-1.091,0-1.975-0.858-1.975-1.916V8.69c0-1.057,0.884-1.916,1.975-1.916
		h181.494c1.092,0,1.976,0.859,1.976,1.916V72.245z"/>
</g>
</svg>
