<?xml version="1.0" encoding="utf-8"?>
<!-- Generator: Adobe Illustrator 17.0.0, SVG Export Plug-In . SVG Version: 6.00 Build 0)  -->
<!DOCTYPE svg PUBLIC "-//W3C//DTD SVG 1.1//EN" "http://www.w3.org/Graphics/SVG/1.1/DTD/svg11.dtd">
<svg 
width="100%" height="100%" viewBox="0 0 90 76" preserveAspectRatio="none"
	version="1.1" id="图层_1" xmlns="http://www.w3.org/2000/svg" xmlns:xlink="http://www.w3.org/1999/xlink"  enable-background="new 0 0 90 76" xml:space="preserve">
<g>
	
		<linearGradient id="SVGID_1_" gradientUnits="userSpaceOnUse" x1="400" y1="-196.1201" x2="400" y2="-261.4842" gradientTransform="matrix(1 0 0 -1 -355 -191)">
		<stop  offset="0" style="stop-color:#F0F0F0"/>
		<stop  offset="1" style="stop-color:#FFFFFF"/>
	</linearGradient>
	<path fill="url(#SVGID_1_)" stroke="#CBCBCB" stroke-width="2" stroke-linecap="round" stroke-miterlimit="10" d="M87.406,70.181
		c0,1.071-0.895,1.941-2,1.941H4.594c-1.104,0-2-0.869-2-1.941V5.82c0-1.072,0.895-1.941,2-1.941h80.811c1.105,0,2,0.869,2,1.941
		L87.406,70.181L87.406,70.181z"/>
	
		<linearGradient id="SVGID_2_" gradientUnits="userSpaceOnUse" x1="400.0005" y1="-263.443" x2="400.0005" y2="-194.557" gradientTransform="matrix(1 0 0 -1 -355 -191)">
		<stop  offset="0" style="stop-color:#E6E6E6"/>
		<stop  offset="1" style="stop-color:#FFFFFF"/>
	</linearGradient>
	<path fill="none" stroke="url(#SVGID_2_)" stroke-width="1.5" stroke-linecap="round" stroke-miterlimit="10" d="M87.055,69.777
		c0,1.058-0.884,1.916-1.976,1.916H4.92c-1.091,0-1.975-0.858-1.975-1.916V6.223c0-1.057,0.884-1.916,1.975-1.916h80.16
		c1.092,0,1.976,0.859,1.976,1.916L87.055,69.777L87.055,69.777z"/>
</g>
</svg>
