<?xml version="1.0" encoding="utf-8"?>
<!-- Generator: Adobe Illustrator 17.0.0, SVG Export Plug-In . SVG Version: 6.00 Build 0)  -->
<!DOCTYPE svg PUBLIC "-//W3C//DTD SVG 1.1//EN" "http://www.w3.org/Graphics/SVG/1.1/DTD/svg11.dtd">
<svg width="100%" height="100%" viewBox="0 0 90 76" preserveAspectRatio="none"
	version="1.1" id="图层_1" xmlns="http://www.w3.org/2000/svg" xmlns:xlink="http://www.w3.org/1999/xlink"  enable-background="new 0 0 90 76" xml:space="preserve">
<g>
	<path fill="#C7C7C7" stroke="#CBCBCB" stroke-width="2" stroke-linecap="round" stroke-miterlimit="10" d="M87.406,70.593
		c0,1.071-0.895,1.94-2,1.94H4.594c-1.104,0-2-0.869-2-1.94V6.233c0-1.072,0.895-1.941,2-1.941h80.811c1.105,0,2,0.869,2,1.941
		V70.593z"/>
	<linearGradient id="SVGID_1_" gradientUnits="userSpaceOnUse" x1="45.0002" y1="72.856" x2="45.0002" y2="3.9693">
		<stop  offset="0" style="stop-color:#E6E6E6"/>
		<stop  offset="1" style="stop-color:#FFFFFF"/>
	</linearGradient>
	<path fill="#C7C7C7" stroke="url(#SVGID_1_)" stroke-width="1.5" stroke-linecap="round" stroke-miterlimit="10" d="M87.055,70.19
		c0,1.058-0.884,1.916-1.976,1.916H4.92c-1.091,0-1.975-0.858-1.975-1.916V6.635c0-1.057,0.884-1.916,1.975-1.916H85.08
		c1.092,0,1.976,0.859,1.976,1.916V70.19z"/>
</g>
</svg>
