<?xml version="1.0" encoding="utf-8"?>
<!-- Generator: Adobe Illustrator 17.0.0, SVG Export Plug-In . SVG Version: 6.00 Build 0)  -->
<!DOCTYPE svg PUBLIC "-//W3C//DTD SVG 1.1//EN" "http://www.w3.org/Graphics/SVG/1.1/DTD/svg11.dtd">
<svg width="100%" height="100%" viewBox="0 0 92 151" preserveAspectRatio="none" version="1.1" id="图层_1" xmlns="http://www.w3.org/2000/svg" xmlns:xlink="http://www.w3.org/1999/xlink"  enable-background="new 0 0 92 151" xml:space="preserve">
<path fill="#FFFFFF" stroke="#CBCBCB" stroke-miterlimit="10" d="M45.4,147.016v-0.031H26.844c-5.006,0-9.078-3.813-9.078-8.5
	l-0.002-56.169c0.002-5.835-3.33-10.592-8.098-11.599c-4.041-0.962-6.853-4.346-6.853-8.232v-50c0-4.687,4.072-8.5,9.078-8.5h34.71
	v0.031h33.508c5.006,0,9.078,3.813,9.078,8.5v50c0,3.886-2.812,7.27-6.838,8.229c-4.783,1.011-8.114,5.767-8.114,11.57v56.201
	c0,4.687-4.071,8.5-9.078,8.5H45.4z"/>
</svg>
