<?xml version="1.0" encoding="utf-8"?>
<!-- Generator: Adobe Illustrator 17.0.0, SVG Export Plug-In . SVG Version: 6.00 Build 0)  -->
<!DOCTYPE svg PUBLIC "-//W3C//DTD SVG 1.1//EN" "http://www.w3.org/Graphics/SVG/1.1/DTD/svg11.dtd">
<svg width="100%" height="100%" viewBox="0 0 86 156" preserveAspectRatio="none" version="1.1" id="图层_1" xmlns="http://www.w3.org/2000/svg" xmlns:xlink="http://www.w3.org/1999/xlink"  enable-background="new 0 0 86 156" xml:space="preserve">
<g>
	<path fill="#FFFFFF" d="M74.938,152.115c8.149,0,8.5-3.814,8.5-8.5V12.416c0-4.688-3.813-8.5-8.5-8.5H57.562l-0.5-0.031h-46
		c-4.687,0-8.5,3.813-8.5,8.5v50c0,3.885,2.633,7.271,6.402,8.229c6.017,1.356,18.474,6.105,18.474,11.601v61.4
		c0,4.686,3.813,8.5,8.5,8.5l20.5-0.031l0.5,0.031H74.938z"/>
	<path fill="none" stroke="#CBCBCB" stroke-miterlimit="10" d="M74.938,152.115c8.149,0,8.5-3.814,8.5-8.5V12.416
		c0-4.688-3.813-8.5-8.5-8.5H57.562l-0.5-0.031h-46c-4.687,0-8.5,3.813-8.5,8.5v50c0,3.885,2.633,7.271,6.402,8.229
		c6.017,1.356,18.474,6.105,18.474,11.601v61.4c0,4.686,3.813,8.5,8.5,8.5l20.5-0.031l0.5,0.031H74.938z"/>
</g>
</svg>
