<?xml version="1.0" encoding="utf-8"?>
<!-- Generator: Adobe Illustrator 17.0.0, SVG Export Plug-In . SVG Version: 6.00 Build 0)  -->
<!DOCTYPE svg PUBLIC "-//W3C//DTD SVG 1.1//EN" "http://www.w3.org/Graphics/SVG/1.1/DTD/svg11.dtd">
<svg width="100%" height="100%" viewBox="0 0 324 50" preserveAspectRatio="none"
	version="1.1" id="图层_1" xmlns="http://www.w3.org/2000/svg" xmlns:xlink="http://www.w3.org/1999/xlink"  enable-background="new 0 0 324 50" xml:space="preserve">
<g>
	<g>
		<g>
			<path fill="#595757" d="M42.322,29.118l1.34,0.692c2.34-2.063,4.948-5.712,6.559-9.107l-2.947-1.558
				C47.107,19.643,42.322,29.118,42.322,29.118z"/>
			<path fill="#595757" d="M79.343,29.381l1.357,0.84c2.641-1.982,5.126-5.656,7.112-9.101l-2.981-1.892
				C84.618,19.736,79.343,29.381,79.343,29.381z"/>
			<polygon fill="#595757" points="101.733,5.866 110.524,5.866 110.524,3.604 89.533,3.604 89.533,5.866 97.364,5.866 
				97.364,27.019 87.394,27.019 87.394,29.334 110.933,29.334 110.933,27.019 101.733,27.019 			"/>
			<path fill="#595757" d="M66.35,6.193c3.495-0.097,6.44-0.306,9.272-1.067l-1.068-3.526c-2.265,0.833-5.914,1.592-10.362,1.927
				c-0.442,0.086-1.485,0.421-1.586,1.619v9.457c0,4.998-0.888,10.426-3.129,14.889l1.761,0.797
				c3.325-4.362,5.112-10.367,5.112-16.644h3.031V29.75h3.674V13.645h2.809v-2.039H66.35V6.193z"/>
			<path fill="#595757" d="M61.028,14.343l-2.953,1.331V9.42h3.234V7.351h-3.234V2.354H54.4v4.998h-3.801V9.42H54.4v7.195
				l-4.044,1.925l1.236,2.935c0,0,1.878-1.284,2.808-1.742v6.52c0,0.669,0.236,1.004-0.535,1.004l-2.133,0.016l-0.005,2.875h2.247
				c1.614,0,2.679-0.263,3.193-0.794c0.513-0.532,0.909-1.383,0.909-2.552v-0.39v-8.147l3.376-2.935L61.028,14.343z"/>
			<path fill="#595757" d="M227.889,22.622c-0.781-5.608-1.972-10.91-3.493-15.415l-4.197,1.673
				c1.499,4.478,4.018,9.089,5.349,14.668L227.889,22.622z"/>
			<path fill="#595757" d="M246.924,7.561c-0.139,0.61-2.223,9.641-3.77,14.599l2.17,0.694c1.827-4.315,4.225-8.957,5.479-14.345
				L246.924,7.561z"/>
			<rect x="301.953" y="3.018" fill="#595757" width="17.437" height="2.041"/>
			<path fill="#595757" d="M297.61,5.174c0.303-0.325,0.715-0.756,1.227-1.298l-3.181-2.092c-2.269,2.597-4.329,6.685-6.708,8.8
				l1.508,1.449C292.771,10.433,295.339,7.576,297.61,5.174z"/>
			<polygon fill="#595757" points="241.071,2.765 237.228,2.765 237.228,27.761 233.805,27.761 233.805,2.765 229.687,2.765 
				229.687,27.761 219.965,27.761 219.965,29.725 251.214,29.725 251.214,27.761 241.071,27.761 			"/>
			<g>
				<path fill="#595757" d="M258.909,8.481h8.971V6.47h-7.147c1.328-1.964,1.712-3.491,1.712-3.491l-3.043-1.238l-4.83,8.622
					l1.049,1.003C258.258,9.418,258.909,8.481,258.909,8.481z"/>
				<path fill="#595757" d="M267.515,20.775v-1.954h-3.666v-5.313h3.396v-1.962l-10.535-0.005v1.967h3.056v5.313h-2.987v1.954h2.987
					v6.842v1.787c0,0-0.027,1.28,1.421,0.871c0.071-0.024,0.136-0.038,0.198-0.046c2.45-0.895,5.148-2.108,6.484-3.218l-0.433-1.468
					l-3.588,1.014v-5.782H267.515z"/>
			</g>
			<path fill="#595757" d="M289.014,18.858l1.332,1.311l1.52-1.225c0.396-0.368,0.878-0.575,1.393-1.225V29.75h3.881V14.635
				l2.34-3.935l-2.982-1.798C294.602,11.74,292.247,15.591,289.014,18.858z"/>
			<path fill="#595757" d="M300.44,11.08v1.975h9.706v11.988c0,0.053-0.004,0.103-0.004,0.153v0.86h-3.014l0.015,3.394l2.495,0.042
				c1.987,0,3.251-0.25,3.791-0.747c0.535-0.499,0.805-1.388,0.805-2.662V25.66V13.054h6.429V11.08H300.44z"/>
			<path fill="#595757" d="M170.168,23.253l-0.973,1.237c0,0,6.137,4.24,7.963,5.257l2.155-3.169
				c-0.446-0.196-0.809-0.357-1.087-0.49C175.23,24.769,173.228,24.204,170.168,23.253z"/>
			<path fill="#595757" d="M161.624,23.071c-3.402,0.985-10.056,3.198-10.056,3.198l1.268,3.339c0.818-0.26,7.026-3.641,9.484-4.963
				L161.624,23.071z"/>
			<path fill="#595757" d="M164.051,16.033v9.971c0,0.003-0.002,0.003-0.002,0.007v1.28h-1.943
				c-0.297,0.017-0.506,0.003-0.506,0.003l0.002,2.606h1.746c1.756,0,3.129-0.269,3.574-0.81c0.442-0.544,0.803-1.374,0.803-2.503
				V26.17V16.033H164.051z"/>
			<path fill="#595757" d="M192.646,27.206h15.825v-7.528h-15.825V27.206z M195.987,21.792h9.108v3.26h-9.108V21.792z"/>
			<path fill="#595757" d="M44.69,10.203c0,0,3.92,2.29,4.747,3.555l-2.072,2.401c0,0-2.4-3.316-3.81-4.294L44.69,10.203z"/>
			<path fill="#595757" d="M45.005,2.157c0,0,4.057,2.368,4.914,3.675l-2.142,2.489c0,0-2.486-3.435-3.947-4.443L45.005,2.157z"/>
			<path fill="#595757" d="M81.585,10.253c0,0,4.212,2.457,5.097,3.815l-2.222,2.58c0,0-2.579-3.566-4.094-4.61L81.585,10.253z"/>
			<path fill="#595757" d="M81.924,2.157c0,0,4.359,2.542,5.277,3.946l-2.303,2.675c0,0-2.667-3.69-4.235-4.775L81.924,2.157z"/>
			<g>
				<path fill="#595757" d="M185.846,5.937h30.244V3.907h-14.199c0,0-1.115-2.396-1.534-2.854l-3.345,0.867l1.575,1.986H184.9v2.056
					h0.946V5.937z"/>
				<path fill="#595757" d="M195.537,13.191c-1.798,3.191-4.356,5.396-4.356,5.396l0.777,1.098c0.422-0.118,6.189-3.23,7.294-6.494
					H195.537z"/>
				<path fill="#595757" d="M206.624,15.522v-2.331h-3.641v1.69c0,1.558,0.271,2.577,0.808,3.052
					c0.539,0.477,1.304,0.713,2.288,0.713h0.908h2.944v-2.015h-2.499C206.895,16.631,206.624,16.172,206.624,15.522z"/>
				<path fill="#595757" d="M215.206,10.498h-0.033h-0.175h-3.774h-0.511h-3.258c0.629-0.578,1.987-1.952,2.962-3.781h-4.632
					c-0.419,1.188-1.089,2.985-1.561,3.781h-7.481c-0.287-0.461-1.386-2.265-1.906-3.781h-4.13c0.366,0.935,1.14,2.432,2.675,3.709
					l-0.009,0.072h-3.699v0.012h-3.443v3.394h0.002v15.985h4.227V13.191v-0.637h4.861h3.542h3.581h3.635h4.785l0,0h0.392v1.671l0,0
					v12.227c0,0.759-0.21,1.105-0.765,1.256h-1.089v2.294h2.408c0.655,0.032,2.317,0.149,2.752-0.693
					c0.334-0.647,0.647-1.624,0.647-3.116V10.687h-0.003V10.498z"/>
			</g>
			<path fill="#595757" d="M283.88,26.791c-0.909-1.168-1.647-2.32-2.258-3.41c1.555-0.785,2.976-1.817,4.254-3.101l-2.382-2.164
				c-0.59,1.092-1.646,2.623-2.779,3.475c-1.3-2.816-1.647-4.895-1.678-5.112h4.875V3.264h-0.003V3.029h-0.278l0,0h-10.995h-0.823
				h-2.817v2.887h0.002v21.342c0,0,0,0-0.002,0v1.226c0,0-0.141,2.385,2.756,1.331c0.186-0.069,0.356-0.125,0.506-0.163
				c2.042-0.72,3.879-1.667,5.489-2.658l-0.411-1.082c-1.881,0.413-2.677,0.695-4.607,0.954V16.479h2.335
				c0.574,2.986,1.559,5.54,2.963,7.661c1.448,2.36,4.196,4.517,7.335,6.153l0.64-1.079
				C285.058,28.165,284.391,27.398,283.88,26.791z M272.727,5.597h0.007V5.059h7.403v3.315h0.012v0.173h-7.421V5.597z
				 M272.727,14.498v-3.966h7.421v3.966H272.727z"/>
			<path fill="#595757" d="M172.661,14.278h8.264v-2.121h-17.971c0.449-0.691,0.87-1.659,1.256-2.338h13.942V7.893h-12.823
				c0.358-0.696,0.678-1.506,0.969-2.133h13.119V3.673H167.25c0.075-0.191,0.146-0.351,0.214-0.492
				c0.149-0.354,0.308-0.754,0.33-0.81l-4.344-0.566c0,0-0.211,0.7-0.629,1.825l-0.036,0.043H151V5.76h10.975
				c-0.277,0.663-0.598,1.381-0.956,2.133h-8.829v1.925h7.863c-0.412,0.774-0.865,1.559-1.346,2.338h-9.075v2.121h7.64
				c-0.123,0.156-0.239,0.318-0.359,0.473l0.011-0.002c-2.95,3.868-7.102,6.538-7.102,6.538l1.002,1.534l2.84-1.624
				c0.307-0.181,0.801-0.505,1.482-0.973c0.317-0.205,0.629-0.418,0.934-0.643c0.068-0.041,0.134-0.087,0.215-0.137
				c0.794,0.5,1.461,0.955,2,1.365l2.175,1.687l1.224-1.221c0,0-1.661-3.324-2.778-4.162c0.884-0.898,1.698-1.855,2.448-2.835h8.298
				l1.226,1.661c0.118,0.134,0.399,0.434,0.845,0.911c0.116,0.107,0.266,0.272,0.457,0.487l-3.168,3.805l1.12,1.248
				c0.186-0.132,0.337-0.229,0.457-0.293c1.705-1.04,2.759-1.829,3.764-2.846c0.211,0.153,0.372,0.271,0.492,0.358
				c1.472,1.084,3.086,2.057,4.839,2.924l1.774-3.311C177.744,17.58,174.322,16.158,172.661,14.278z"/>
			<path fill="#595757" d="M145.66,24.121c-0.635,1.685-1.799,2.424-2.755,2.64c-0.328,0.106-0.597,0.125-0.812,0.103
				c-0.016,0-0.023,0-0.023,0c-0.011-0.002-0.023-0.009-0.035-0.011c-0.3-0.046-0.471-0.158-0.471-0.158
				c-0.009-0.006-0.015-0.016-0.024-0.023c-2.722-1.151-4.513-4.681-5.632-7.988h8.882v-2.238h-9.556
				c-0.667-2.49-0.931-4.435-0.931-4.435l0.089-0.029h10.14V2.955h-1.141V2.943h-24.452v0.012h-2.226v24.029
				c0,0-0.364,3.157,2.02,2.972c0.158-0.009,0.301-0.014,0.435-0.011c5.088-1.505,9.883-3.613,9.883-3.613l-0.506-1.192
				c-0.511,0.148-3.558,0.623-7.64,1.247v-7.704h10.416c0.118,0.295,0.253,0.595,0.402,0.897c1.111,2.631,2.402,5.365,4.818,7.571
				c0.118,0.119,0.228,0.238,0.352,0.346c1.878,1.751,4.095,2.739,5.943,2.739c1.214,0,3.677-1.221,4.304-5.636L145.66,24.121z
				 M120.905,5.234h19.743v4.65h-19.743V5.234z M128.548,16.445v-0.002h-7.643v-4.455h7.643v-0.007h1.032
				c0.016,0.132,0.149,1.115,0.5,2.575c0.12,0.571,0.276,1.207,0.471,1.889H128.548z"/>
		</g>
		<g>
			<path fill="#595757" d="M42.07,46.873l5.865-6.777h-5.729v-1.298h8.522v1.642l-5.95,6.869h5.971v1.295H42.07V46.873z"/>
			<path fill="#595757" d="M51.998,48.605v-9.806h2.336v4.095h4.365v-4.095h2.339v9.806h-2.339v-4.459h-4.365v4.459H51.998z"/>
			<path fill="#595757" d="M71.11,40.089h-5.827v2.804h4.729l-0.301,1.252h-4.428v3.146h6.097v1.313H62.99v-9.806h8.12V40.089z"/>
			<path fill="#595757" d="M82.7,48.605h-2.34v-9.806h2.34V48.605z"/>
			<path fill="#595757" d="M87.748,38.798h2.652l3.98,9.806h-2.548l-0.912-2.464h-3.818l-0.923,2.464H83.73L87.748,38.798z
				 M87.586,44.896h2.878l-1.415-3.853L87.586,44.896z"/>
			<path fill="#595757" d="M95.398,38.798h2.457l4.471,7.27v-7.27h2.18v9.806h-2.34l-4.585-7.4v7.4h-2.182V38.798z"/>
			<path fill="#595757" d="M136.829,48.605h-2.336v-9.806h2.336V48.605z"/>
			<path fill="#595757" d="M157.716,38.798v1.291h-3.374v8.515h-2.339v-8.515h-3.371v-1.291H157.716z"/>
			<path fill="#595757" d="M170.602,48.605h-2.336v-9.806h2.336V48.605z"/>
			<path fill="#595757" d="M193.909,47.712c-0.845,0.759-2.076,1.139-3.686,1.139c-1.61,0-2.841-0.38-3.691-1.139
				c-1.14-0.933-1.713-2.277-1.713-4.031c0-1.791,0.573-3.135,1.713-4.032c0.85-0.761,2.081-1.141,3.691-1.141
				c1.61,0,2.841,0.379,3.686,1.141c1.14,0.897,1.706,2.241,1.706,4.032C195.615,45.435,195.049,46.779,193.909,47.712z
				 M192.454,46.471c0.549-0.651,0.824-1.584,0.824-2.79c0-1.205-0.276-2.136-0.824-2.791c-0.55-0.66-1.291-0.986-2.226-0.986
				c-0.933,0-1.676,0.326-2.233,0.981c-0.558,0.656-0.835,1.586-0.835,2.796c0,1.206,0.276,2.139,0.835,2.79
				c0.558,0.659,1.3,0.986,2.233,0.986C191.163,47.457,191.904,47.131,192.454,46.471z"/>
			<path fill="#595757" d="M239.549,39.053c0.413,0.156,0.769,0.383,1.053,0.686c0.241,0.248,0.432,0.522,0.571,0.823
				c0.134,0.302,0.208,0.647,0.208,1.034c0,0.466-0.134,0.922-0.403,1.375c-0.268,0.448-0.706,0.767-1.327,0.953
				c0.515,0.182,0.878,0.441,1.092,0.775c0.214,0.331,0.323,0.845,0.323,1.531v0.658c0,0.45,0.017,0.754,0.059,0.912
				c0.063,0.252,0.207,0.441,0.434,0.559v0.246h-2.572c-0.069-0.216-0.121-0.391-0.149-0.524c-0.058-0.279-0.091-0.558-0.096-0.848
				l-0.016-1.589c0-0.389-0.125-1.324-1.443-1.324h-2.604v4.285h-2.293v-9.806h5.388C238.543,38.816,239.135,38.899,239.549,39.053z
				 M234.678,40.046v3.095h2.551c0.505,0,0.884-0.053,1.138-0.161c0.449-0.186,0.675-0.619,0.675-1.436
				c0-0.685-0.215-1.118-0.651-1.323c-0.246-0.115-0.61-0.175-1.095-0.175H234.678z"/>
			<path fill="#595757" d="M255.404,48.605h-2.341v-9.806h2.341V48.605z"/>
			<path fill="#595757" d="M268.104,38.798h2.338v8.494h5.643v1.313h-7.981V38.798z"/>
			<path fill="#595757" d="M288.473,39.845c0.346,0.416,0.518,0.917,0.518,1.496c0,0.601-0.175,1.082-0.523,1.448
				c-0.195,0.202-0.483,0.387-0.864,0.554c0.577,0.185,1.013,0.473,1.308,0.865c0.29,0.398,0.441,0.877,0.441,1.439
				c0,0.58-0.167,1.1-0.5,1.564c-0.215,0.304-0.479,0.561-0.796,0.768c-0.362,0.242-0.787,0.404-1.27,0.493
				c-0.492,0.09-1.02,0.134-1.591,0.134h-5.064v-9.806h5.431C286.931,38.819,287.905,39.165,288.473,39.845z M282.383,40.046v2.756
				h2.72c0.486,0,0.904-0.047,1.185-0.245c0.265-0.188,0.455-0.593,0.455-1.137c0-0.46-0.158-0.971-0.603-1.218
				c-0.314-0.178-0.787-0.156-1.322-0.156H282.383z M282.383,44.157v3.202h2.714c0.484,0,0.868-0.049,1.135-0.174
				c0.511-0.235,0.735-0.851,0.735-1.458c0-0.515-0.227-1.089-0.713-1.351c-0.255-0.135-0.64-0.214-1.119-0.219H282.383z"/>
			<path fill="#595757" d="M312.71,38.798h2.339v4.468l4.781-4.468h2.596l-4.603,4.046l4.84,5.761h-3.028l-3.467-4.269l-1.12,0.991
				v3.278h-2.339V38.798z"/>
			<path fill="#595757" d="M76.125,38.798v6.696c0,0.475,0.035,1.97-1.267,1.978c-0.233,0.004-1.263-0.077-1.742-0.127l-0.273,1.214
				c3.457,0.69,4.617-0.13,5.091-0.845c0.323-0.488,0.53-1.25,0.53-2.084v-6.832H76.125z"/>
			<path fill="#595757" d="M138.571,38.798h2.456l4.468,7.27v-7.27h2.184v9.806h-2.343l-4.584-7.4v7.4h-2.18V38.798z"/>
			<path fill="#595757" d="M160.84,38.798h2.649l3.981,9.806h-2.551l-0.911-2.464h-3.818l-0.921,2.464h-2.449L160.84,38.798z
				 M160.676,44.896h2.878l-1.417-3.853L160.676,44.896z"/>
			<path fill="#595757" d="M204.574,38.798h3.377v9.806h-2.033c0,0,0-8.051,0-8.227l-2.8,8.227h-1.851l-2.254-8.227
				c0,0.185,0,8.227,0,8.227h-1.945v-9.806h2.884l2.175,7.71L204.574,38.798z"/>
			<path fill="#595757" d="M217.18,38.798h3.378v9.806h-2.036c0,0,0-8.051,0-8.227l-2.798,8.227h-1.85l-2.256-8.227
				c0,0.185,0,8.227,0,8.227h-1.944v-9.806h2.884l2.174,7.71L217.18,38.798z"/>
			<path fill="#595757" d="M129.488,38.798h3.375v9.806h-2.034c0,0,0-8.051,0-8.227l-2.798,8.227h-1.851l-2.253-8.227
				c0,0.185,0,8.227,0,8.227h-1.945v-9.806h2.882l2.177,7.71L129.488,38.798z"/>
			<path fill="#595757" d="M230.573,40.089h-5.829v2.804h4.73l-0.299,1.252h-4.43v3.146h6.1v1.313h-8.391v-9.806h8.12V40.089z"/>
			<path fill="#595757" d="M183.186,46.17c-0.083,0.14-0.293,0.417-0.422,0.554c-0.437,0.453-0.969,0.747-1.77,0.747
				c-0.788,0-1.431-0.274-1.944-0.819c-0.508-0.548-0.764-1.763-0.764-2.86c0-1.096,0.243-2.345,0.724-2.944
				c0.487-0.601,1.148-0.898,1.985-0.898c0.822,0,1.381,0.163,1.92,0.799c0.064,0.074,0.351,0.427,0.398,0.498
				c0.403-0.404,0.891-0.89,1.332-1.326c-0.853-0.681-1.664-1.301-3.745-1.301c-1.399,0-2.552,0.399-3.457,1.208
				c-1.043,0.921-1.562,2.238-1.562,3.945c0,1.58,0.456,2.82,1.373,3.727c0.917,0.901,2.175,1.351,3.775,1.351
				c2.495,0,3.664-1.341,3.719-1.388C184.187,47.015,183.742,46.663,183.186,46.17z"/>
			<path fill="#595757" d="M111.739,44.542h2.629c-0.046,0.602-0.403,1.289-0.868,1.775c-0.838,0.88-3.033,1.335-4.258,0.148
				c-0.573-0.564-1.049-1.445-1.049-2.649c0-1.193,0.353-2.034,0.909-2.653c0.916-1.018,2.123-1.047,3.074-0.932
				c0.99,0.123,2.043,0.996,2.421,1.698c0.428-0.569,0.954-1.133,1.383-1.647c-0.097-0.083-1.393-1.775-4.488-1.93
				c-1.644-0.082-3.202,0.678-4.203,1.636c-1.003,0.957-1.5,2.227-1.5,3.811c0,1.567,0.544,2.748,1.48,3.706
				c1.43,1.462,4.352,2.036,6.357,0.645c0.333-0.233,0.638-0.54,0.795-0.768l0.247,1.223h1.577v-5.262h-4.7L111.739,44.542z"/>
			<path fill="#595757" d="M250.167,46.17c-0.085,0.14-0.29,0.417-0.422,0.554c-0.439,0.453-0.969,0.747-1.774,0.747
				c-0.783,0-1.433-0.274-1.94-0.819c-0.51-0.548-0.766-1.763-0.766-2.86c0-1.096,0.242-2.345,0.728-2.944
				c0.484-0.601,1.146-0.898,1.983-0.898c0.819,0,1.38,0.163,1.918,0.799c0.063,0.074,0.35,0.427,0.398,0.498
				c0.406-0.404,0.892-0.89,1.332-1.326c-0.853-0.681-1.667-1.301-3.745-1.301c-1.401,0-2.55,0.399-3.457,1.208
				c-1.045,0.921-1.561,2.238-1.561,3.945c0,1.58,0.455,2.82,1.374,3.727c0.912,0.901,2.171,1.351,3.771,1.351
				c2.494,0,3.669-1.341,3.72-1.388C251.169,47.015,250.722,46.663,250.167,46.17z"/>
			<path fill="#595757" d="M260.282,38.798h2.649l3.982,9.806h-2.553l-0.911-2.464h-3.815l-0.922,2.464h-2.451L260.282,38.798z
				 M260.116,44.896h2.881l-1.417-3.853L260.116,44.896z"/>
			<path fill="#595757" d="M294.062,38.798h2.649l3.984,9.806h-2.551l-0.912-2.464h-3.817l-0.921,2.464h-2.453L294.062,38.798z
				 M293.901,44.896h2.877l-1.419-3.853L293.901,44.896z"/>
			<path fill="#595757" d="M301.738,38.798h2.455l4.468,7.27v-7.27h2.182v9.806h-2.34l-4.586-7.4v7.4h-2.179V38.798z"/>
		</g>
	</g>
	<g>
		<g>
			<g>
				<linearGradient id="SVGID_1_" gradientUnits="userSpaceOnUse" x1="7.9043" y1="48.9984" x2="7.9043" y2="38.3052">
					<stop  offset="0" style="stop-color:#E40012"/>
					<stop  offset="0.1939" style="stop-color:#AB0004"/>
					<stop  offset="0.6336" style="stop-color:#CC000C"/>
					<stop  offset="1" style="stop-color:#E40012"/>
				</linearGradient>
				<path fill="url(#SVGID_1_)" d="M13.17,37.975h-2.197c-0.205,0-0.414,0.063-0.593,0.192c-0.18,0.131-0.304,0.31-0.368,0.505
					l-2.111,6.47l-2.324-7.167H3.547c-0.242,0-0.483,0.086-0.676,0.258c-0.195,0.173-0.304,0.404-0.331,0.644L1.336,48.946h2.306
					c0.03,0,0.059-0.012,0.084-0.031c0.023-0.021,0.037-0.05,0.04-0.08l0.886-7.932l2.497,8.043c0,0,1.236,0,1.366,0
					c0.133,0,0.155-0.101,0.155-0.101l2.48-7.944l0.885,7.934c0.003,0.03,0.017,0.059,0.04,0.08c0.025,0.02,0.054,0.031,0.084,0.031
					h2.312L13.17,37.975z"/>
				<polygon fill="none" points="4.427,42.92 5.278,42.92 4.652,40.903 				"/>
				<polygon fill="none" points="10.519,42.92 11.376,42.92 11.15,40.9 				"/>
				<linearGradient id="SVGID_2_" gradientUnits="userSpaceOnUse" x1="4.6184" y1="37.9861" x2="4.6184" y2="39.1927">
					<stop  offset="0" style="stop-color:#FFFFFF;stop-opacity:0.75"/>
					<stop  offset="0.0661" style="stop-color:#FFFFFF;stop-opacity:0.6998"/>
					<stop  offset="0.9879" style="stop-color:#FFFFFF;stop-opacity:0"/>
				</linearGradient>
				<path fill="url(#SVGID_2_)" d="M4.652,40.903l0.626,2.017H7.18l-1.603-4.945H3.547c-0.242,0-0.483,0.086-0.676,0.258
					c-0.195,0.173-0.304,0.404-0.331,0.644L2.057,42.92h2.369L4.652,40.903z"/>
				<linearGradient id="SVGID_3_" gradientUnits="userSpaceOnUse" x1="11.1922" y1="37.9861" x2="11.1922" y2="39.1927">
					<stop  offset="0" style="stop-color:#FFFFFF;stop-opacity:0.75"/>
					<stop  offset="0.0661" style="stop-color:#FFFFFF;stop-opacity:0.6998"/>
					<stop  offset="0.9879" style="stop-color:#FFFFFF;stop-opacity:0"/>
				</linearGradient>
				<path fill="url(#SVGID_3_)" d="M11.15,40.9l0.226,2.02h2.382l-0.588-4.945h-2.197c-0.205,0-0.414,0.063-0.593,0.192
					c-0.18,0.131-0.304,0.31-0.368,0.505L8.627,42.92h1.892L11.15,40.9z"/>
				<linearGradient id="SVGID_4_" gradientUnits="userSpaceOnUse" x1="6.0259" y1="48.9006" x2="6.0259" y2="40.1392">
					<stop  offset="0" style="stop-color:#FFFFFF;stop-opacity:0"/>
					<stop  offset="1" style="stop-color:#FFFFFF;stop-opacity:0.75"/>
				</linearGradient>
				<path fill="url(#SVGID_4_)" d="M4.672,40.729l2.55,8.217c0,0,0.061,0,0.158,0l-2.666-8.59L4.672,40.729z"/>
				<linearGradient id="SVGID_5_" gradientUnits="userSpaceOnUse" x1="2.5928" y1="38.0924" x2="2.5928" y2="48.9425">
					<stop  offset="0" style="stop-color:#FFFFFF;stop-opacity:0.75"/>
					<stop  offset="1" style="stop-color:#FFFFFF;stop-opacity:0"/>
				</linearGradient>
				<path fill="url(#SVGID_5_)" d="M3.1,38.233c0.194-0.172,0.436-0.258,0.676-0.258H3.619c-0.241,0-0.482,0.086-0.676,0.258
					c-0.193,0.173-0.303,0.404-0.329,0.644L1.409,48.946h0.157L2.77,38.878C2.797,38.637,2.908,38.407,3.1,38.233z"/>
				<linearGradient id="SVGID_6_" gradientUnits="userSpaceOnUse" x1="9.5782" y1="38.0819" x2="9.5782" y2="45.4323">
					<stop  offset="0" style="stop-color:#FFFFFF;stop-opacity:0.75"/>
					<stop  offset="1" style="stop-color:#FFFFFF;stop-opacity:0"/>
				</linearGradient>
				<path fill="url(#SVGID_6_)" d="M10.241,38.672c0.064-0.195,0.189-0.374,0.369-0.505c0.18-0.13,0.389-0.192,0.594-0.192h-0.157
					c-0.207,0-0.415,0.063-0.596,0.192c-0.179,0.131-0.303,0.31-0.368,0.505l-2.131,6.53l0.079,0.243L10.241,38.672z"/>
				<linearGradient id="SVGID_7_" gradientUnits="userSpaceOnUse" x1="11.7944" y1="48.8942" x2="11.7944" y2="40.0997">
					<stop  offset="0" style="stop-color:#FFFFFF;stop-opacity:0"/>
					<stop  offset="1" style="stop-color:#FFFFFF;stop-opacity:0.75"/>
				</linearGradient>
				<path fill="url(#SVGID_7_)" d="M12.265,48.835l-0.95-8.477L11.2,40.729l0.909,8.106c0.002,0.03,0.016,0.059,0.04,0.08
					c0.024,0.02,0.054,0.03,0.083,0.03h0.158c-0.03,0-0.059-0.011-0.083-0.03C12.282,48.894,12.269,48.865,12.265,48.835z"/>
			</g>
			<g>
				<g>
					<linearGradient id="SVGID_8_" gradientUnits="userSpaceOnUse" x1="28.3928" y1="49.0041" x2="28.3928" y2="38.2961">
						<stop  offset="0" style="stop-color:#E40012"/>
						<stop  offset="0.1939" style="stop-color:#AB0004"/>
						<stop  offset="0.6336" style="stop-color:#CC000C"/>
						<stop  offset="1" style="stop-color:#E40012"/>
					</linearGradient>
					<path fill="url(#SVGID_8_)" d="M32.056,43.322c1.496-1.046,1.728-5.347-2.82-5.347h-5.729c-0.045,0-0.09,0.019-0.122,0.055
						c-0.032,0.035-0.046,0.083-0.04,0.128l0.163,1.426c0.005,0.039,0.024,0.076,0.054,0.104c0.031,0.027,0.071,0.041,0.11,0.041
						l5.469-0.002c2.279,0,2.057,2.845,0.266,2.845c-0.183,0-2.167,0.002-2.167,0.002l0.165,1.389
						c0.022,0.094,0.115,0.308,0.511,0.328c0.634-0.01,1.243,0,1.769,0c1.992,0,1.794,2.765,0.095,2.765c-0.213,0-2.797,0-3.617,0
						c-0.156,0-0.248-0.061-0.248-0.228c0-0.167,0-5.34,0-5.34c0-0.111-0.043-0.224-0.129-0.309
						c-0.083-0.085-0.196-0.128-0.309-0.128h-1.897v7.451c0,0.229,0.107,0.441,0.409,0.441h1.513h4.548
						C33.746,48.946,34.431,44.536,32.056,43.322z"/>
				</g>
				<linearGradient id="SVGID_9_" gradientUnits="userSpaceOnUse" x1="24.7464" y1="37.906" x2="24.7464" y2="39.8123">
					<stop  offset="0" style="stop-color:#FFFFFF;stop-opacity:0.65"/>
					<stop  offset="0.0476" style="stop-color:#FFFFFF;stop-opacity:0.6191"/>
					<stop  offset="1" style="stop-color:#FFFFFF;stop-opacity:0"/>
				</linearGradient>
				<path fill="url(#SVGID_9_)" d="M25.914,41.49c0-0.111-0.043-0.224-0.129-0.309c-0.083-0.085-0.196-0.128-0.309-0.128h-1.897
					v1.864h2.335V41.49z"/>
				<g>
					<linearGradient id="SVGID_10_" gradientUnits="userSpaceOnUse" x1="24.7464" y1="37.9743" x2="24.7464" y2="39.1833">
						<stop  offset="0" style="stop-color:#FFFFFF;stop-opacity:0.45"/>
						<stop  offset="0.1341" style="stop-color:#FFFFFF;stop-opacity:0.3897"/>
						<stop  offset="1" style="stop-color:#FFFFFF;stop-opacity:0"/>
					</linearGradient>
					<path fill="url(#SVGID_10_)" d="M25.477,41.053h-1.897v1.85h2.335c0-0.806,0-1.413,0-1.413c0-0.111-0.043-0.224-0.129-0.309
						C25.702,41.096,25.589,41.053,25.477,41.053z"/>
					<linearGradient id="SVGID_11_" gradientUnits="userSpaceOnUse" x1="28.1829" y1="37.9751" x2="28.1829" y2="39.1836">
						<stop  offset="0" style="stop-color:#FFFFFF;stop-opacity:0.75"/>
						<stop  offset="0.0661" style="stop-color:#FFFFFF;stop-opacity:0.6998"/>
						<stop  offset="0.9879" style="stop-color:#FFFFFF;stop-opacity:0"/>
					</linearGradient>
					<path fill="url(#SVGID_11_)" d="M29.237,37.975h-5.729c-0.045,0-0.09,0.019-0.122,0.055c-0.032,0.035-0.046,0.083-0.04,0.128
						l0.163,1.426c0.005,0.039,0.024,0.076,0.054,0.104c0.031,0.027,0.071,0.041,0.11,0.041l5.469-0.002
						c2.279,0,2.057,2.845,0.266,2.845c-0.183,0-2.167,0.002-2.167,0.002l0.039,0.328h5.194
						C33.549,41.436,33.319,37.975,29.237,37.975z"/>
				</g>
				<linearGradient id="SVGID_12_" gradientUnits="userSpaceOnUse" x1="29.6318" y1="46.766" x2="30.6898" y2="44.9394">
					<stop  offset="0" style="stop-color:#FFFFFF;stop-opacity:0.75"/>
					<stop  offset="1" style="stop-color:#FFFFFF;stop-opacity:0"/>
				</linearGradient>
				<path fill="url(#SVGID_12_)" d="M29.756,44.293c1.993,0,1.795,2.765,0.096,2.765c0.078,0,0.134,0,0.158,0
					c1.699,0,1.896-2.765-0.097-2.765"/>
				<linearGradient id="SVGID_13_" gradientUnits="userSpaceOnUse" x1="23.9351" y1="41.258" x2="23.9351" y2="48.7913">
					<stop  offset="0" style="stop-color:#FFFFFF;stop-opacity:0.75"/>
					<stop  offset="1" style="stop-color:#FFFFFF;stop-opacity:0"/>
				</linearGradient>
				<path fill="url(#SVGID_13_)" d="M23.808,48.504v-7.35l-0.157-0.064v7.415c0,0.229,0.106,0.441,0.41,0.441h0.157
					C23.917,48.946,23.808,48.733,23.808,48.504z"/>
				<linearGradient id="SVGID_14_" gradientUnits="userSpaceOnUse" x1="27.725" y1="44.3127" x2="27.725" y2="42.7576">
					<stop  offset="0" style="stop-color:#FFFFFF;stop-opacity:0"/>
					<stop  offset="1" style="stop-color:#FFFFFF;stop-opacity:0.75"/>
				</linearGradient>
				<path fill="url(#SVGID_14_)" d="M27.318,42.62l0.159,1.344c0.022,0.094,0.117,0.308,0.511,0.328
					c0.048-0.001,0.096-0.002,0.144-0.002c-0.383-0.025-0.475-0.233-0.497-0.326l-0.152-1.284L27.318,42.62z"/>
				<linearGradient id="SVGID_15_" gradientUnits="userSpaceOnUse" x1="28.2857" y1="42.5898" x2="30.7823" y2="40.0931">
					<stop  offset="0" style="stop-color:#FFFFFF;stop-opacity:0.75"/>
					<stop  offset="1" style="stop-color:#FFFFFF;stop-opacity:0"/>
				</linearGradient>
				<path fill="url(#SVGID_15_)" d="M29.64,42.573c1.789,0,2.011-2.845-0.268-2.845l-0.156,0.001
					c2.278,0.001,2.056,2.845,0.266,2.845"/>
				<linearGradient id="SVGID_16_" gradientUnits="userSpaceOnUse" x1="23.6597" y1="39.6889" x2="23.6597" y2="37.9789">
					<stop  offset="0" style="stop-color:#FFFFFF;stop-opacity:0"/>
					<stop  offset="1" style="stop-color:#FFFFFF;stop-opacity:0.75"/>
				</linearGradient>
				<path fill="url(#SVGID_16_)" d="M23.739,39.585l-0.164-1.426c-0.006-0.045,0.008-0.092,0.041-0.128
					c0.032-0.036,0.078-0.055,0.123-0.055h-0.158c-0.046,0-0.091,0.019-0.124,0.055c-0.032,0.035-0.046,0.083-0.04,0.128
					l0.165,1.426c0.004,0.039,0.022,0.076,0.054,0.104c0.031,0.027,0.071,0.041,0.11,0.041h0.158c-0.039,0-0.078-0.014-0.11-0.041
					C23.762,39.661,23.744,39.623,23.739,39.585z"/>
			</g>
			<g>
				<linearGradient id="SVGID_17_" gradientUnits="userSpaceOnUse" x1="18.3778" y1="49.0041" x2="18.3778" y2="38.2961">
					<stop  offset="0" style="stop-color:#E40012"/>
					<stop  offset="0.1939" style="stop-color:#AB0004"/>
					<stop  offset="0.6336" style="stop-color:#CC000C"/>
					<stop  offset="1" style="stop-color:#E40012"/>
				</linearGradient>
				<path fill="url(#SVGID_17_)" d="M23.05,39.546l-0.135-1.247l-0.023-0.213c0-0.002-0.002-0.004-0.002-0.007
					c-0.005-0.026-0.017-0.052-0.039-0.071c-0.023-0.021-0.054-0.032-0.083-0.032h-1.155h-7.745c-0.045,0-0.092,0.019-0.123,0.055
					c-0.032,0.035-0.045,0.083-0.041,0.127l0.158,1.46c0.003,0.029,0.016,0.058,0.04,0.079c0.023,0.021,0.054,0.031,0.083,0.031
					h3.309c0.016,0,0.032,0.007,0.045,0.019c0.012,0.012,0.018,0.028,0.018,0.044v9.155c0,0,1.589,0,2.109,0
					c0.252,0,0.377-0.092,0.377-0.378c0-0.288,0-8.777,0-8.777c0-0.016,0.007-0.032,0.018-0.044
					c0.012-0.012,0.029-0.019,0.045-0.019h1.706h1.272c0.046,0,0.091-0.018,0.123-0.054C23.042,39.637,23.055,39.59,23.05,39.546z"
					/>
				<linearGradient id="SVGID_18_" gradientUnits="userSpaceOnUse" x1="18.3778" y1="37.9751" x2="18.3778" y2="39.1835">
					<stop  offset="0" style="stop-color:#FFFFFF;stop-opacity:0.75"/>
					<stop  offset="0.0661" style="stop-color:#FFFFFF;stop-opacity:0.6998"/>
					<stop  offset="0.9879" style="stop-color:#FFFFFF;stop-opacity:0"/>
				</linearGradient>
				<path fill="url(#SVGID_18_)" d="M19.844,39.791c0-0.016,0.007-0.032,0.018-0.044c0.012-0.012,0.029-0.019,0.045-0.019h1.706
					h1.272c0.046,0,0.091-0.018,0.123-0.054c0.033-0.036,0.046-0.083,0.041-0.128l-0.135-1.247l-0.023-0.213
					c0-0.002-0.002-0.004-0.002-0.007c-0.005-0.026-0.017-0.052-0.039-0.071c-0.023-0.021-0.054-0.032-0.083-0.032h-1.155h-7.745
					c-0.045,0-0.092,0.019-0.123,0.055c-0.032,0.035-0.045,0.083-0.041,0.127l0.158,1.46c0.003,0.029,0.016,0.058,0.04,0.079
					c0.023,0.021,0.054,0.031,0.083,0.031h3.309c0.016,0,0.032,0.007,0.045,0.019c0.012,0.012,0.018,0.028,0.018,0.044v3.127h2.486
					V39.791z"/>
				<linearGradient id="SVGID_19_" gradientUnits="userSpaceOnUse" x1="17.4797" y1="39.7846" x2="17.4797" y2="46.8754">
					<stop  offset="0" style="stop-color:#FFFFFF;stop-opacity:0.75"/>
					<stop  offset="1" style="stop-color:#FFFFFF;stop-opacity:0"/>
				</linearGradient>
				<path fill="url(#SVGID_19_)" d="M17.571,39.747c-0.012-0.012-0.028-0.019-0.045-0.019H17.37c0.015,0,0.032,0.007,0.044,0.019
					c0.012,0.012,0.018,0.028,0.018,0.044v9.155c0,0,0.059,0,0.158,0v-9.155C17.59,39.775,17.583,39.759,17.571,39.747z"/>
				<linearGradient id="SVGID_20_" gradientUnits="userSpaceOnUse" x1="13.9966" y1="37.9578" x2="13.9966" y2="39.7219">
					<stop  offset="0" style="stop-color:#FFFFFF;stop-opacity:0.75"/>
					<stop  offset="1" style="stop-color:#FFFFFF;stop-opacity:0"/>
				</linearGradient>
				<path fill="url(#SVGID_20_)" d="M14.093,39.618l-0.158-1.46c-0.006-0.045,0.009-0.092,0.04-0.127
					c0.033-0.036,0.078-0.055,0.123-0.055h-0.158c-0.045,0-0.091,0.019-0.122,0.055c-0.033,0.035-0.047,0.083-0.042,0.127
					l0.158,1.46c0.003,0.029,0.017,0.058,0.041,0.079c0.024,0.021,0.054,0.031,0.084,0.031h0.157c-0.03,0-0.059-0.01-0.083-0.031
					C14.111,39.675,14.097,39.646,14.093,39.618z"/>
			</g>
		</g>
		<g>
			<g>
				<g>
					<linearGradient id="SVGID_21_" gradientUnits="userSpaceOnUse" x1="2.3346" y1="13.4588" x2="29.7818" y2="27.9977">
						<stop  offset="0" style="stop-color:#7D0000"/>
						<stop  offset="1" style="stop-color:#860000"/>
					</linearGradient>
					<path fill="url(#SVGID_21_)" d="M17.679,33.159c-9.011,0-16.343-7.332-16.343-16.345c0-5.313,2.603-10.314,6.962-13.376
						l0.356-0.253c0.026-0.017,0.061-0.027,0.093-0.027c0.044,0,0.083,0.016,0.113,0.046c0.055,0.058,0.062,0.143,0.015,0.209
						L8.618,3.764c-1.998,2.732-3.052,5.969-3.052,9.36c0,8.755,7.122,15.879,15.878,15.879c3.281,0,6.432-0.997,9.113-2.881
						l0.358-0.248c0.026-0.022,0.059-0.033,0.092-0.033c0.043,0,0.083,0.017,0.115,0.05c0.055,0.058,0.061,0.146,0.016,0.205
						l-0.259,0.356C27.805,30.651,22.87,33.159,17.679,33.159z"/>
					<linearGradient id="SVGID_22_" gradientUnits="userSpaceOnUse" x1="2.3501" y1="13.4674" x2="29.7641" y2="27.9888">
						<stop  offset="0" style="stop-color:#7D0000"/>
						<stop  offset="1" style="stop-color:#860000"/>
					</linearGradient>
					<path fill="url(#SVGID_22_)" d="M17.679,33.139c-9,0-16.324-7.324-16.324-16.325c0-5.309,2.6-10.301,6.955-13.362l0.355-0.25
						c0.023-0.017,0.053-0.025,0.083-0.025c0.035,0,0.073,0.014,0.098,0.04c0.051,0.05,0.055,0.127,0.015,0.184L8.602,3.752
						c-2.001,2.736-3.057,5.977-3.057,9.372c0,8.766,7.133,15.897,15.899,15.897c3.283,0,6.44-0.998,9.124-2.883l0.359-0.248
						c0.021-0.018,0.05-0.028,0.079-0.028c0.039,0,0.074,0.016,0.101,0.042c0.048,0.05,0.054,0.126,0.012,0.181l-0.257,0.354
						C27.794,30.635,22.866,33.139,17.679,33.139z"/>
					<linearGradient id="SVGID_23_" gradientUnits="userSpaceOnUse" x1="3.0066" y1="7.9073" x2="23.3913" y2="33.1019">
						<stop  offset="0" style="stop-color:#A20000"/>
						<stop  offset="1" style="stop-color:#990000"/>
					</linearGradient>
					<path fill="url(#SVGID_23_)" d="M17.673,33.095c-8.976,0-16.278-7.301-16.278-16.277c0-5.293,2.591-10.273,6.933-13.325
						l0.359-0.252C8.702,3.228,8.721,3.223,8.74,3.223c0.026,0,0.05,0.011,0.068,0.029c0.033,0.035,0.036,0.087,0.009,0.125
						L8.56,3.731c-2.008,2.741-3.067,5.989-3.067,9.394c0,8.791,7.153,15.944,15.945,15.944c3.292,0,6.458-1.001,9.15-2.892
						l0.358-0.249c0.016-0.011,0.035-0.017,0.054-0.017c0.026,0,0.051,0.007,0.068,0.029c0.032,0.031,0.038,0.084,0.007,0.122
						l-0.259,0.352C27.758,30.6,22.845,33.095,17.673,33.095z"/>
					<linearGradient id="SVGID_24_" gradientUnits="userSpaceOnUse" x1="15.2548" y1="14.268" x2="19.7849" y2="18.7981">
						<stop  offset="0" style="stop-color:#A20000"/>
						<stop  offset="1" style="stop-color:#860300"/>
					</linearGradient>
					<path fill="url(#SVGID_24_)" d="M17.529,22.33c-0.162,0-0.313-0.064-0.429-0.181l-5.18-5.177c-0.117-0.116-0.18-0.27-0.18-0.43
						c0-0.163,0.063-0.315,0.18-0.43l5.18-5.182c0.116-0.114,0.268-0.177,0.429-0.177c0.163,0,0.315,0.063,0.429,0.178l5.181,5.18
						c0.116,0.115,0.179,0.267,0.179,0.43c0,0.16-0.063,0.314-0.179,0.428l-5.182,5.179C17.841,22.267,17.69,22.33,17.529,22.33z"/>
					<path fill="#E4001F" d="M17.529,22.283c-0.149,0-0.291-0.059-0.398-0.165l-5.182-5.178c-0.105-0.106-0.163-0.25-0.163-0.397
						c0-0.152,0.059-0.292,0.163-0.397l5.183-5.183c0.105-0.105,0.247-0.164,0.396-0.164c0.15,0,0.291,0.059,0.397,0.165
						l5.182,5.182c0.107,0.106,0.163,0.247,0.163,0.397c0,0.147-0.055,0.29-0.163,0.395l-5.182,5.182
						C17.82,22.223,17.679,22.283,17.529,22.283z"/>
					<linearGradient id="SVGID_25_" gradientUnits="userSpaceOnUse" x1="19.3483" y1="1.7581" x2="28.656" y2="21.7246">
						<stop  offset="0" style="stop-color:#9B0000"/>
						<stop  offset="1" style="stop-color:#870000"/>
					</linearGradient>
					<path fill="url(#SVGID_25_)" d="M28.243,23.034c-0.037,0-0.074-0.014-0.101-0.04c-0.048-0.048-0.054-0.125-0.012-0.183
						c0.577-0.819,1.134-2.08,1.492-3.37c1.402-5.024-1.466-12.079-7.824-14.165c-1.365-0.45-2.741-0.677-4.084-0.677
						c-2.2,0-4.296,0.624-6.057,1.797c-0.021,0.015-0.051,0.023-0.078,0.023c-0.038,0-0.073-0.016-0.1-0.042
						c-0.047-0.049-0.053-0.124-0.016-0.18c2.261-3.218,5.964-5.143,9.902-5.143c1.293,0,2.576,0.209,3.812,0.62
						c1.289,0.432,2.482,1.067,3.547,1.891c0.811,0.667,1.558,1.416,2.216,2.222c2.444,3.198,3.148,7.374,1.881,11.173
						c-0.819,2.464-2.376,4.553-4.499,6.049C28.3,23.024,28.271,23.034,28.243,23.034z"/>
					<linearGradient id="SVGID_26_" gradientUnits="userSpaceOnUse" x1="19.3662" y1="1.7952" x2="28.6395" y2="21.688">
						<stop  offset="0" style="stop-color:#BB0008"/>
						<stop  offset="1" style="stop-color:#A20000"/>
					</linearGradient>
					<path fill="url(#SVGID_26_)" d="M28.243,22.99c-0.023,0-0.049-0.01-0.069-0.029c-0.033-0.034-0.037-0.087-0.01-0.123
						c0.582-0.826,1.141-2.091,1.501-3.386c1.408-5.045-1.47-12.125-7.854-14.222c-1.369-0.45-2.749-0.676-4.097-0.676
						c-2.209,0-4.311,0.622-6.081,1.803c-0.017,0.009-0.035,0.015-0.054,0.015c-0.025,0-0.051-0.009-0.068-0.03
						c-0.032-0.033-0.036-0.083-0.011-0.12c2.255-3.208,5.941-5.126,9.865-5.126c1.287,0,2.565,0.21,3.797,0.622
						c1.284,0.427,2.472,1.059,3.534,1.878c0.808,0.668,1.55,1.413,2.209,2.217c2.434,3.186,3.134,7.346,1.873,11.13
						c-0.818,2.453-2.368,4.537-4.482,6.026C28.282,22.985,28.262,22.99,28.243,22.99z"/>
					<linearGradient id="SVGID_27_" gradientUnits="userSpaceOnUse" x1="22.8633" y1="32.1906" x2="2.7146" y2="8.1783">
						<stop  offset="0" style="stop-color:#E40012"/>
						<stop  offset="0.0877" style="stop-color:#DD0011"/>
						<stop  offset="0.219" style="stop-color:#C8000F"/>
						<stop  offset="0.3636" style="stop-color:#AA010C"/>
						<stop  offset="0.391" style="stop-color:#AE010C"/>
						<stop  offset="0.637" style="stop-color:#CB000F"/>
						<stop  offset="0.8486" style="stop-color:#DE0011"/>
						<stop  offset="1" style="stop-color:#E40012"/>
					</linearGradient>
					<path fill="url(#SVGID_27_)" d="M30.665,26.235c-2.708,1.905-5.892,2.911-9.204,2.911c-8.844,0-16.038-7.193-16.038-16.041
						c0-3.424,1.066-6.693,3.084-9.451l0.261-0.356L8.408,3.553c-4.318,3.03-6.894,7.982-6.894,13.246
						c0,8.921,7.261,16.183,16.183,16.183c5.144,0,10.027-2.484,13.068-6.643l0.259-0.353L30.665,26.235z"/>
					<linearGradient id="SVGID_28_" gradientUnits="userSpaceOnUse" x1="14.6703" y1="13.7012" x2="20.404" y2="19.4023">
						<stop  offset="0" style="stop-color:#D6000F"/>
						<stop  offset="0.7697" style="stop-color:#950000"/>
						<stop  offset="0.8826" style="stop-color:#970000"/>
						<stop  offset="0.9233" style="stop-color:#9E0002"/>
						<stop  offset="0.9523" style="stop-color:#A90005"/>
						<stop  offset="0.9758" style="stop-color:#BA0009"/>
						<stop  offset="0.9956" style="stop-color:#D0000E"/>
						<stop  offset="1" style="stop-color:#D6000F"/>
					</linearGradient>
					<path fill="url(#SVGID_28_)" d="M17.844,22.04c-0.079,0.079-0.193,0.13-0.315,0.13c-0.123,0-0.234-0.05-0.316-0.13
						l-5.182-5.179c-0.082-0.085-0.13-0.196-0.13-0.318c0-0.124,0.048-0.239,0.13-0.318l5.182-5.177
						c0.082-0.084,0.193-0.133,0.316-0.133c0.122,0,0.236,0.049,0.315,0.133l5.183,5.177c0.081,0.079,0.13,0.195,0.13,0.318
						c0,0.122-0.049,0.233-0.13,0.318L17.844,22.04z"/>
					<g>
						
							<linearGradient id="SVGID_29_" gradientUnits="userSpaceOnUse" x1="1990.6958" y1="8777.4141" x2="1991.1107" y2="8775.0605" gradientTransform="matrix(-1 0 0 -1 2009.1973 8788.4414)">
							<stop  offset="0" style="stop-color:#FFFFFF"/>
							<stop  offset="0.0476" style="stop-color:#FFFFFF;stop-opacity:0.9524"/>
							<stop  offset="1" style="stop-color:#FFFFFF;stop-opacity:0"/>
						</linearGradient>
						<path fill="url(#SVGID_29_)" d="M17.213,11.046c0.082-0.083,0.195-0.133,0.316-0.133c0.125,0,0.236,0.05,0.315,0.133
							l5.184,5.177c0.08,0.083,0.129,0.195,0.129,0.317c0,0.124-0.049,0.237-0.129,0.317l-5.184,5.182
							c-0.079,0.079-0.19,0.13-0.315,0.13c-0.121,0-0.234-0.05-0.316-0.13l-5.182-5.182c-0.08-0.08-0.13-0.193-0.13-0.317
							c0-0.122,0.049-0.234,0.13-0.317L17.213,11.046z"/>
						<linearGradient id="SVGID_30_" gradientUnits="userSpaceOnUse" x1="14.5947" y1="13.6079" x2="15.8472" y2="14.8603">
							<stop  offset="0" style="stop-color:#FFFFFF"/>
							<stop  offset="0.0476" style="stop-color:#FFFFFF;stop-opacity:0.9524"/>
							<stop  offset="1" style="stop-color:#FFFFFF;stop-opacity:0"/>
						</linearGradient>
						<path fill="url(#SVGID_30_)" d="M17.844,22.04c-0.079,0.079-0.193,0.13-0.315,0.13c-0.123,0-0.234-0.05-0.316-0.13
							l-5.182-5.179c-0.082-0.085-0.13-0.196-0.13-0.318c0-0.124,0.048-0.239,0.13-0.318l5.182-5.177
							c0.082-0.084,0.193-0.133,0.316-0.133c0.122,0,0.236,0.049,0.315,0.133l5.183,5.177c0.081,0.079,0.13,0.195,0.13,0.318
							c0,0.122-0.049,0.233-0.13,0.318L17.844,22.04z"/>
					</g>
					<linearGradient id="SVGID_31_" gradientUnits="userSpaceOnUse" x1="14.3319" y1="6.2611" x2="37.4833" y2="17.5595">
						<stop  offset="0.0121" style="stop-color:#E40012"/>
						<stop  offset="0.1545" style="stop-color:#E00012"/>
						<stop  offset="0.2874" style="stop-color:#D50010"/>
						<stop  offset="0.4161" style="stop-color:#C2010F"/>
						<stop  offset="0.5333" style="stop-color:#AA010C"/>
						<stop  offset="0.5578" style="stop-color:#AE050E"/>
						<stop  offset="0.9152" style="stop-color:#E63828"/>
					</linearGradient>
					<path fill="url(#SVGID_31_)" d="M21.842,5.141c6.327,2.079,9.397,9.03,7.916,14.338c-0.318,1.147-0.864,2.492-1.515,3.414
						c2.013-1.418,3.608-3.462,4.446-5.976c1.298-3.896,0.468-8.002-1.855-11.043c-0.654-0.8-1.388-1.537-2.194-2.201
						c-1.027-0.795-2.203-1.43-3.506-1.864C20.012,0.102,14.536,2.072,11.58,6.279C14.436,4.373,18.098,3.913,21.842,5.141z"/>
					<g opacity="0.8">
						<linearGradient id="SVGID_32_" gradientUnits="userSpaceOnUse" x1="29.9287" y1="25.4203" x2="13.8505" y2="25.4203">
							<stop  offset="0" style="stop-color:#FFFFFF"/>
							<stop  offset="0.0476" style="stop-color:#FFFFFF;stop-opacity:0.9524"/>
							<stop  offset="1" style="stop-color:#FFFFFF;stop-opacity:0"/>
						</linearGradient>
						<path fill="url(#SVGID_32_)" d="M21.551,29.08c-5.929,0-11.116-3.234-13.891-8.03c2.188,5.127,7.39,8.741,13.444,8.741
							c3.697,0,7.249-1.389,9.919-3.806l-0.266,0.188C28.05,28.075,24.864,29.08,21.551,29.08z"/>
					</g>
					<g opacity="0.3">
						<linearGradient id="SVGID_33_" gradientUnits="userSpaceOnUse" x1="22.6637" y1="17.1343" x2="17.4737" y2="22.2069">
							<stop  offset="0" style="stop-color:#FFFFFF"/>
							<stop  offset="0.0476" style="stop-color:#FFFFFF;stop-opacity:0.9524"/>
							<stop  offset="1" style="stop-color:#FFFFFF;stop-opacity:0"/>
						</linearGradient>
						<path fill="url(#SVGID_33_)" d="M17.519,22.17c-0.005,0-0.01,0-0.012-0.002C17.509,22.17,17.514,22.17,17.519,22.17z"/>
						<linearGradient id="SVGID_34_" gradientUnits="userSpaceOnUse" x1="23.2" y1="16.7127" x2="17.5206" y2="22.2634">
							<stop  offset="0" style="stop-color:#FFFFFF"/>
							<stop  offset="0.0476" style="stop-color:#FFFFFF;stop-opacity:0.9524"/>
							<stop  offset="1" style="stop-color:#FFFFFF;stop-opacity:0"/>
						</linearGradient>
						<path fill="url(#SVGID_34_)" d="M17.529,22.17c0.109,0,0.207-0.038,0.282-0.104C17.736,22.13,17.635,22.17,17.529,22.17
							L17.529,22.17z"/>
						<linearGradient id="SVGID_35_" gradientUnits="userSpaceOnUse" x1="23.0563" y1="16.5879" x2="17.3944" y2="22.1216">
							<stop  offset="0" style="stop-color:#FFFFFF"/>
							<stop  offset="0.0476" style="stop-color:#FFFFFF;stop-opacity:0.9524"/>
							<stop  offset="1" style="stop-color:#FFFFFF;stop-opacity:0"/>
						</linearGradient>
						<path fill="url(#SVGID_35_)" d="M23.157,16.541c0-0.033-0.003-0.064-0.01-0.094c0.007,0.03,0.01,0.064,0.01,0.096V16.541z"/>
						<linearGradient id="SVGID_36_" gradientUnits="userSpaceOnUse" x1="23.321" y1="16.4673" x2="17.4565" y2="22.199">
							<stop  offset="0" style="stop-color:#FFFFFF"/>
							<stop  offset="0.0476" style="stop-color:#FFFFFF;stop-opacity:0.9524"/>
							<stop  offset="1" style="stop-color:#FFFFFF;stop-opacity:0"/>
						</linearGradient>
						<path fill="url(#SVGID_36_)" d="M17.497,22.168c-0.005,0-0.01,0-0.016-0.003C17.488,22.168,17.492,22.168,17.497,22.168z"/>
						<linearGradient id="SVGID_37_" gradientUnits="userSpaceOnUse" x1="23.1445" y1="16.6771" x2="17.4447" y2="22.2479">
							<stop  offset="0" style="stop-color:#FFFFFF"/>
							<stop  offset="0.0476" style="stop-color:#FFFFFF;stop-opacity:0.9524"/>
							<stop  offset="1" style="stop-color:#FFFFFF;stop-opacity:0"/>
						</linearGradient>
						<path fill="url(#SVGID_37_)" d="M23.031,16.854c0.066-0.065,0.108-0.155,0.123-0.252
							C23.139,16.698,23.096,16.786,23.031,16.854z"/>
						<linearGradient id="SVGID_38_" gradientUnits="userSpaceOnUse" x1="22.7417" y1="16.45" x2="13.8997" y2="25.0919">
							<stop  offset="0" style="stop-color:#FFFFFF"/>
							<stop  offset="0.0476" style="stop-color:#FFFFFF;stop-opacity:0.9524"/>
							<stop  offset="1" style="stop-color:#FFFFFF;stop-opacity:0"/>
						</linearGradient>
						<path fill="url(#SVGID_38_)" d="M23.027,16.224c0.012,0.015,0.026,0.029,0.037,0.045
							C23.054,16.253,23.041,16.239,23.027,16.224l-0.095-0.095c0.005,0.006,0.008,0.012,0.015,0.016L23.027,16.224z"/>
						<linearGradient id="SVGID_39_" gradientUnits="userSpaceOnUse" x1="22.9658" y1="16.4946" x2="17.3198" y2="22.0128">
							<stop  offset="0" style="stop-color:#FFFFFF"/>
							<stop  offset="0.0476" style="stop-color:#FFFFFF;stop-opacity:0.9524"/>
							<stop  offset="1" style="stop-color:#FFFFFF;stop-opacity:0"/>
						</linearGradient>
						<path fill="url(#SVGID_39_)" d="M23.064,16.269c0.04,0.051,0.069,0.112,0.083,0.177C23.134,16.38,23.104,16.319,23.064,16.269
							z"/>
						<linearGradient id="SVGID_40_" gradientUnits="userSpaceOnUse" x1="17.4817" y1="22.1654" x2="17.4817" y2="22.1654">
							<stop  offset="0" style="stop-color:#FFFFFF"/>
							<stop  offset="0.0476" style="stop-color:#FFFFFF;stop-opacity:0.9524"/>
							<stop  offset="1" style="stop-color:#FFFFFF;stop-opacity:0"/>
						</linearGradient>
						<path fill="url(#SVGID_40_)" d="M17.482,22.165L17.482,22.165L17.482,22.165z"/>
						<linearGradient id="SVGID_41_" gradientUnits="userSpaceOnUse" x1="23.5719" y1="16.2354" x2="17.4616" y2="22.2074">
							<stop  offset="0" style="stop-color:#FFFFFF"/>
							<stop  offset="0.0476" style="stop-color:#FFFFFF;stop-opacity:0.9524"/>
							<stop  offset="1" style="stop-color:#FFFFFF;stop-opacity:0"/>
						</linearGradient>
						<path fill="url(#SVGID_41_)" d="M17.507,22.168c-0.002,0-0.007,0-0.009,0C17.5,22.168,17.505,22.168,17.507,22.168z"/>
						<linearGradient id="SVGID_42_" gradientUnits="userSpaceOnUse" x1="23.2055" y1="16.7412" x2="17.5381" y2="22.2803">
							<stop  offset="0" style="stop-color:#FFFFFF"/>
							<stop  offset="0.0476" style="stop-color:#FFFFFF;stop-opacity:0.9524"/>
							<stop  offset="1" style="stop-color:#FFFFFF;stop-opacity:0"/>
						</linearGradient>
						<path fill="url(#SVGID_42_)" d="M17.844,22.04c-0.01,0.009-0.022,0.02-0.033,0.026C17.822,22.06,17.834,22.049,17.844,22.04
							l5.183-5.179c0.001-0.003,0.002-0.004,0.003-0.007c-0.002,0-0.003,0.002-0.003,0.003L17.844,22.04z"/>
						<linearGradient id="SVGID_43_" gradientUnits="userSpaceOnUse" x1="23.0987" y1="16.6277" x2="17.5735" y2="22.0278">
							<stop  offset="0" style="stop-color:#FFFFFF"/>
							<stop  offset="0.0476" style="stop-color:#FFFFFF;stop-opacity:0.9524"/>
							<stop  offset="1" style="stop-color:#FFFFFF;stop-opacity:0"/>
						</linearGradient>
						<path fill="url(#SVGID_43_)" d="M23.157,16.542L23.157,16.542c0,0.022,0,0.04-0.003,0.06
							C23.157,16.583,23.157,16.565,23.157,16.542z"/>
						<linearGradient id="SVGID_44_" gradientUnits="userSpaceOnUse" x1="22.8264" y1="16.9871" x2="17.4783" y2="22.2141">
							<stop  offset="0" style="stop-color:#FFFFFF"/>
							<stop  offset="0.0476" style="stop-color:#FFFFFF;stop-opacity:0.9524"/>
							<stop  offset="1" style="stop-color:#FFFFFF;stop-opacity:0"/>
						</linearGradient>
						<polygon fill="url(#SVGID_44_)" points="17.529,22.17 17.529,22.17 17.519,22.17 						"/>
						<linearGradient id="SVGID_45_" gradientUnits="userSpaceOnUse" x1="23.0097" y1="16.5378" x2="17.3406" y2="22.0786">
							<stop  offset="0" style="stop-color:#FFFFFF"/>
							<stop  offset="0.0476" style="stop-color:#FFFFFF;stop-opacity:0.9524"/>
							<stop  offset="1" style="stop-color:#FFFFFF;stop-opacity:0"/>
						</linearGradient>
						<path fill="url(#SVGID_45_)" d="M23.157,16.542c0-0.032-0.003-0.065-0.01-0.096c-0.013-0.065-0.043-0.126-0.083-0.177
							c-0.011-0.016-0.025-0.03-0.037-0.045l-0.08-0.078c0.007,0.008,0.016,0.017,0.021,0.029c0.04,0.05,0.069,0.109,0.081,0.177
							c0.008,0.03,0.012,0.061,0.012,0.093v0.002l0,0c0,0.021-0.002,0.04-0.003,0.059c-0.014,0.098-0.057,0.186-0.122,0.252
							c-0.003,0.001-0.003,0.005-0.006,0.007l-5.181,5.178c-0.009,0.011-0.021,0.021-0.032,0.028
							c-0.077,0.065-0.176,0.102-0.283,0.102l0,0l0,0c-0.005,0-0.007,0-0.012,0c-0.004,0-0.008,0-0.012-0.002
							c-0.002,0-0.007,0-0.008,0c-0.006,0-0.011,0-0.016,0h-0.002c-0.097-0.012-0.186-0.054-0.255-0.118l0.083,0.087
							c0.071,0.068,0.162,0.115,0.269,0.125l0,0c0.006,0.003,0.011,0.003,0.016,0.003c0.002,0,0.007,0,0.009,0
							c0.002,0.002,0.007,0.002,0.012,0.002c0.003,0,0.007,0,0.01,0c0.106,0,0.207-0.04,0.282-0.104
							c0.011-0.006,0.023-0.017,0.033-0.026l5.184-5.182c0-0.001,0.001-0.003,0.003-0.003c0.066-0.068,0.108-0.156,0.123-0.252
							C23.157,16.583,23.157,16.565,23.157,16.542z"/>
						<linearGradient id="SVGID_46_" gradientUnits="userSpaceOnUse" x1="24.3253" y1="15.2977" x2="17.3567" y2="22.1085">
							<stop  offset="0" style="stop-color:#FFFFFF"/>
							<stop  offset="0.0476" style="stop-color:#FFFFFF;stop-opacity:0.9524"/>
							<stop  offset="1" style="stop-color:#FFFFFF;stop-opacity:0"/>
						</linearGradient>
						<path fill="url(#SVGID_46_)" d="M17.403,22.071c-0.006,0-0.011,0-0.016,0C17.392,22.071,17.397,22.071,17.403,22.071z"/>
						<linearGradient id="SVGID_47_" gradientUnits="userSpaceOnUse" x1="22.9637" y1="16.4888" x2="17.4712" y2="21.8569">
							<stop  offset="0" style="stop-color:#FFFFFF"/>
							<stop  offset="0.0476" style="stop-color:#FFFFFF;stop-opacity:0.9524"/>
							<stop  offset="1" style="stop-color:#FFFFFF;stop-opacity:0"/>
						</linearGradient>
						<path fill="url(#SVGID_47_)" d="M23.061,16.445c0-0.032-0.003-0.064-0.012-0.093c0.008,0.03,0.012,0.063,0.012,0.095V16.445z"
							/>
						<linearGradient id="SVGID_48_" gradientUnits="userSpaceOnUse" x1="23.0936" y1="16.6286" x2="17.4276" y2="22.1663">
							<stop  offset="0" style="stop-color:#FFFFFF"/>
							<stop  offset="0.0476" style="stop-color:#FFFFFF;stop-opacity:0.9524"/>
							<stop  offset="1" style="stop-color:#FFFFFF;stop-opacity:0"/>
						</linearGradient>
						<path fill="url(#SVGID_48_)" d="M17.434,22.073c0.106,0,0.206-0.037,0.283-0.102C17.639,22.035,17.54,22.073,17.434,22.073
							L17.434,22.073z"/>
						<linearGradient id="SVGID_49_" gradientUnits="userSpaceOnUse" x1="23.0502" y1="16.5796" x2="17.362" y2="22.1391">
							<stop  offset="0" style="stop-color:#FFFFFF"/>
							<stop  offset="0.0476" style="stop-color:#FFFFFF;stop-opacity:0.9524"/>
							<stop  offset="1" style="stop-color:#FFFFFF;stop-opacity:0"/>
						</linearGradient>
						<path fill="url(#SVGID_49_)" d="M23.058,16.506c-0.014,0.097-0.057,0.183-0.122,0.252
							C23.001,16.693,23.044,16.604,23.058,16.506z"/>
						<linearGradient id="SVGID_50_" gradientUnits="userSpaceOnUse" x1="22.1626" y1="17.4335" x2="17.3816" y2="22.1064">
							<stop  offset="0" style="stop-color:#FFFFFF"/>
							<stop  offset="0.0476" style="stop-color:#FFFFFF;stop-opacity:0.9524"/>
							<stop  offset="1" style="stop-color:#FFFFFF;stop-opacity:0"/>
						</linearGradient>
						<path fill="url(#SVGID_50_)" d="M17.422,22.073c-0.004,0-0.008,0-0.012-0.002C17.414,22.073,17.418,22.073,17.422,22.073z"/>
						<linearGradient id="SVGID_51_" gradientUnits="userSpaceOnUse" x1="22.695" y1="16.4002" x2="13.8803" y2="25.0154">
							<stop  offset="0" style="stop-color:#FFFFFF"/>
							<stop  offset="0.0476" style="stop-color:#FFFFFF;stop-opacity:0.9524"/>
							<stop  offset="1" style="stop-color:#FFFFFF;stop-opacity:0"/>
						</linearGradient>
						<path fill="url(#SVGID_51_)" d="M22.969,16.174c-0.006-0.011-0.015-0.021-0.021-0.029l-0.017-0.016
							C22.945,16.145,22.957,16.159,22.969,16.174z"/>
						<linearGradient id="SVGID_52_" gradientUnits="userSpaceOnUse" x1="22.8678" y1="16.4012" x2="17.1175" y2="22.0213">
							<stop  offset="0" style="stop-color:#FFFFFF"/>
							<stop  offset="0.0476" style="stop-color:#FFFFFF;stop-opacity:0.9524"/>
							<stop  offset="1" style="stop-color:#FFFFFF;stop-opacity:0"/>
						</linearGradient>
						<path fill="url(#SVGID_52_)" d="M22.969,16.174c0.04,0.05,0.069,0.111,0.081,0.177C23.038,16.283,23.009,16.224,22.969,16.174
							z"/>
						<linearGradient id="SVGID_53_" gradientUnits="userSpaceOnUse" x1="23.1115" y1="16.6434" x2="17.4437" y2="22.1829">
							<stop  offset="0" style="stop-color:#FFFFFF"/>
							<stop  offset="0.0476" style="stop-color:#FFFFFF;stop-opacity:0.9524"/>
							<stop  offset="1" style="stop-color:#FFFFFF;stop-opacity:0"/>
						</linearGradient>
						<path fill="url(#SVGID_53_)" d="M17.748,21.943c-0.009,0.011-0.02,0.021-0.031,0.028
							C17.728,21.963,17.74,21.953,17.748,21.943l5.182-5.178c0.003-0.002,0.003-0.006,0.006-0.007
							c-0.002,0.001-0.003,0.001-0.006,0.005L17.748,21.943z"/>
						<linearGradient id="SVGID_54_" gradientUnits="userSpaceOnUse" x1="23.6454" y1="15.9965" x2="17.3759" y2="22.124">
							<stop  offset="0" style="stop-color:#FFFFFF"/>
							<stop  offset="0.0476" style="stop-color:#FFFFFF;stop-opacity:0.9524"/>
							<stop  offset="1" style="stop-color:#FFFFFF;stop-opacity:0"/>
						</linearGradient>
						<polygon fill="url(#SVGID_54_)" points="17.434,22.073 17.434,22.073 17.422,22.073 						"/>
						<linearGradient id="SVGID_55_" gradientUnits="userSpaceOnUse" x1="22.2452" y1="17.3223" x2="17.3627" y2="22.0942">
							<stop  offset="0" style="stop-color:#FFFFFF"/>
							<stop  offset="0.0476" style="stop-color:#FFFFFF;stop-opacity:0.9524"/>
							<stop  offset="1" style="stop-color:#FFFFFF;stop-opacity:0"/>
						</linearGradient>
						<path fill="url(#SVGID_55_)" d="M17.387,22.071h-0.002H17.387z"/>
						<linearGradient id="SVGID_56_" gradientUnits="userSpaceOnUse" x1="23.0048" y1="16.5298" x2="17.554" y2="21.8572">
							<stop  offset="0" style="stop-color:#FFFFFF"/>
							<stop  offset="0.0476" style="stop-color:#FFFFFF;stop-opacity:0.9524"/>
							<stop  offset="1" style="stop-color:#FFFFFF;stop-opacity:0"/>
						</linearGradient>
						<path fill="url(#SVGID_56_)" d="M23.061,16.447L23.061,16.447c0,0.021-0.002,0.04-0.003,0.059
							C23.059,16.487,23.061,16.467,23.061,16.447z"/>
						<linearGradient id="SVGID_57_" gradientUnits="userSpaceOnUse" x1="22.9104" y1="16.6923" x2="17.3712" y2="22.1061">
							<stop  offset="0" style="stop-color:#FFFFFF"/>
							<stop  offset="0.0476" style="stop-color:#FFFFFF;stop-opacity:0.9524"/>
							<stop  offset="1" style="stop-color:#FFFFFF;stop-opacity:0"/>
						</linearGradient>
						<path fill="url(#SVGID_57_)" d="M17.411,22.071c-0.002,0-0.007,0-0.008,0C17.404,22.071,17.408,22.071,17.411,22.071z"/>
					</g>
					<g>
						<g>
							<linearGradient id="SVGID_58_" gradientUnits="userSpaceOnUse" x1="2.1295" y1="8.6176" x2="3.1953" y2="9.8126">
								<stop  offset="0" style="stop-color:#FFFFFF"/>
								<stop  offset="0.0476" style="stop-color:#FFFFFF;stop-opacity:0.9524"/>
								<stop  offset="1" style="stop-color:#FFFFFF;stop-opacity:0"/>
							</linearGradient>
							<path fill="url(#SVGID_58_)" d="M30.665,26.235c-2.708,1.905-5.892,2.911-9.204,2.911c-8.844,0-16.038-7.193-16.038-16.041
								c0-3.424,1.066-6.693,3.084-9.451l0.261-0.356L8.408,3.553c-4.318,3.03-6.894,7.982-6.894,13.246
								c0,8.921,7.261,16.183,16.183,16.183c5.144,0,10.027-2.484,13.068-6.643l0.259-0.353L30.665,26.235z"/>
						</g>
						<linearGradient id="SVGID_59_" gradientUnits="userSpaceOnUse" x1="1.3565" y1="12.5094" x2="3.0709" y2="13.5298">
							<stop  offset="0" style="stop-color:#FFFFFF"/>
							<stop  offset="0.0476" style="stop-color:#FFFFFF;stop-opacity:0.9524"/>
							<stop  offset="1" style="stop-color:#FFFFFF;stop-opacity:0"/>
						</linearGradient>
						<path fill="url(#SVGID_59_)" d="M17.744,32.933c-8.896,0-16.132-7.24-16.132-16.134c0-5.248,2.568-10.183,6.872-13.209
							l0.111-0.078l-0.08,0.113C6.491,6.392,5.42,9.672,5.42,13.106c0,8.873,7.218,16.089,16.087,16.089
							c3.327,0,6.52-1.01,9.235-2.918l0.111-0.076l-0.078,0.108C27.743,30.455,22.872,32.933,17.744,32.933z"/>
					</g>
				</g>
				<linearGradient id="SVGID_60_" gradientUnits="userSpaceOnUse" x1="19.1722" y1="1.1477" x2="19.7208" y2="2.3714">
					<stop  offset="0" style="stop-color:#FFFFFF"/>
					<stop  offset="0.0476" style="stop-color:#FFFFFF;stop-opacity:0.9524"/>
					<stop  offset="1" style="stop-color:#FFFFFF;stop-opacity:0"/>
				</linearGradient>
				<path fill="url(#SVGID_60_)" d="M21.842,5.141c6.327,2.079,9.397,9.03,7.916,14.338c-0.318,1.147-0.864,2.492-1.515,3.414
					c2.013-1.418,3.608-3.462,4.446-5.976c1.298-3.896,0.468-8.002-1.855-11.043c-0.654-0.8-1.388-1.537-2.194-2.201
					c-1.027-0.795-2.203-1.43-3.506-1.864C20.012,0.102,14.536,2.072,11.58,6.279C14.436,4.373,18.098,3.913,21.842,5.141z"/>
				<linearGradient id="SVGID_61_" gradientUnits="userSpaceOnUse" x1="27.6516" y1="23.3371" x2="27.6516" y2="6.6515">
					<stop  offset="0" style="stop-color:#FFFFFF"/>
					<stop  offset="0.0476" style="stop-color:#FFFFFF;stop-opacity:0.9524"/>
					<stop  offset="1" style="stop-color:#FFFFFF;stop-opacity:0"/>
				</linearGradient>
				<path fill="url(#SVGID_61_)" d="M24.838,6.63c4.262,2.953,6.143,8.462,4.919,12.848c-0.317,1.147-0.864,2.492-1.515,3.414h0.001
					c0.667-0.804,1.272-2.008,1.648-3.041C31.517,15.416,29.643,9.389,24.838,6.63z"/>
			</g>
		</g>
	</g>
</g>
</svg>
