<?xml version="1.0" encoding="utf-8"?>
<!-- Generator: Adobe Illustrator 17.0.0, SVG Export Plug-In . SVG Version: 6.00 Build 0)  -->
<!DOCTYPE svg PUBLIC "-//W3C//DTD SVG 1.1//EN" "http://www.w3.org/Graphics/SVG/1.1/DTD/svg11.dtd">
<svg width="100%" height="100%" viewBox="0 0 364 63" preserveAspectRatio="none"
	version="1.1" id="图层_1" xmlns="http://www.w3.org/2000/svg" xmlns:xlink="http://www.w3.org/1999/xlink"  enable-background="new 0 0 364 63" xml:space="preserve">
<g>
	<path fill="#D5D4D4" stroke="#CBCBCB" stroke-width="2" stroke-linecap="round" stroke-miterlimit="10" d="M359.651,57.42
		c0,1.072-0.895,1.941-2,1.941H6.211c-1.104,0-2-0.869-2-1.941V6.302c0-1.071,0.895-1.941,2-1.941h351.44c1.105,0,2,0.869,2,1.941
		V57.42z"/>
	<linearGradient id="SVGID_1_" gradientUnits="userSpaceOnUse" x1="181.9309" y1="59.6836" x2="181.9309" y2="4.0391">
		<stop  offset="0" style="stop-color:#E6E6E6"/>
		<stop  offset="1" style="stop-color:#FFFFFF"/>
	</linearGradient>
	<path fill="none" stroke="url(#SVGID_1_)" stroke-width="1.5" stroke-linecap="round" stroke-miterlimit="10" d="M359.3,57.018
		c0,1.057-0.883,1.916-1.975,1.916H6.537c-1.091,0-1.975-0.859-1.975-1.916V6.705c0-1.058,0.884-1.916,1.975-1.916h350.788
		c1.092,0,1.975,0.858,1.975,1.916V57.018z"/>
</g>
</svg>
